<mxfile host="Electron" modified="2023-08-28T06:57:43.124Z" agent="Mozilla/5.0 (Windows NT 10.0; Win64; x64) AppleWebKit/537.36 (KHTML, like Gecko) draw.io/21.6.5 Chrome/114.0.5735.243 Electron/25.3.1 Safari/537.36" etag="d4-WYUBR8-CkchRwlqmL" version="21.6.5" type="device">
  <diagram name="Page-1" id="74e2e168-ea6b-b213-b513-2b3c1d86103e">
    <mxGraphModel dx="1420" dy="830" grid="1" gridSize="10" guides="1" tooltips="1" connect="1" arrows="1" fold="1" page="1" pageScale="1" pageWidth="1100" pageHeight="850" background="none" math="0" shadow="0">
      <root>
        <mxCell id="0" />
        <mxCell id="1" parent="0" />
        <mxCell id="lh4Hu-f7bNMvqbhPJ9hV-1" value="&lt;ol style=&quot;font-size: 20px;&quot;&gt;&lt;li style=&quot;font-size: 20px;&quot;&gt;&lt;strike&gt;Создание экрана. Нарисовать полосу разделения по центру.&lt;/strike&gt;&lt;/li&gt;&lt;li style=&quot;font-size: 20px;&quot;&gt;&lt;strike&gt;Создаем платформы №1&lt;/strike&gt;&lt;/li&gt;&lt;li style=&quot;font-size: 20px;&quot;&gt;&lt;strike&gt;Создание платформы №2&lt;/strike&gt;&lt;/li&gt;&lt;li style=&quot;font-size: 20px;&quot;&gt;&lt;strike&gt;Привязываем платформы к&amp;nbsp; клавиатуре.&lt;/strike&gt;&lt;/li&gt;&lt;li style=&quot;font-size: 20px;&quot;&gt;Ограничить выход платформы за край экрана&lt;/li&gt;&lt;li style=&quot;font-size: 20px;&quot;&gt;&lt;strike&gt;Создаем мячик&lt;/strike&gt;&lt;/li&gt;&lt;li style=&quot;font-size: 20px;&quot;&gt;&lt;strike&gt;Привязываем запуск мячика к клавиатуре&lt;/strike&gt;&lt;/li&gt;&lt;li style=&quot;font-size: 20px;&quot;&gt;Создать направление мячика&lt;/li&gt;&lt;li style=&quot;font-size: 20px;&quot;&gt;Добавляем условие рикошета о стену и платформу&lt;/li&gt;&lt;li style=&quot;font-size: 20px;&quot;&gt;&lt;strike&gt;Добавляем условия прибавления очков&lt;/strike&gt;&lt;/li&gt;&lt;li style=&quot;font-size: 20px;&quot;&gt;&lt;strike&gt;Добавляем табло&lt;/strike&gt;&lt;/li&gt;&lt;/ol&gt;" style="text;strokeColor=none;fillColor=none;html=1;whiteSpace=wrap;verticalAlign=top;overflow=hidden;fontSize=20;" parent="1" vertex="1">
          <mxGeometry width="290" height="570" as="geometry" />
        </mxCell>
        <mxCell id="lh4Hu-f7bNMvqbhPJ9hV-2" value="" style="shape=image;verticalLabelPosition=bottom;labelBackgroundColor=default;verticalAlign=top;aspect=fixed;imageAspect=0;image=data:image/png,iVBORw0KGgoAAAANSUhEUgAABXcAAAL2CAYAAAAKHaWcAAAgAElEQVR4nOzd3ZMc5Xnw/+vu7tk37coYJF4d7NgQ2zGp+CAuu/xLwi+QSlxJVSpxJZVU5R/In5TDnKTKlUMnR4/LSTlUjG2c5AESjBAIIQnEi5AE0mp3Z7rv+zmAGXaRhBCa1ah7Px97rdntQXvbgBh/dc3VKSJKAAAAcCDcfffd8Td/8zfx13/91/Hggw/GXXfdFZubm3H27Nl4+umn40c/+lE888wzce7cuUUfFQC4gRTiLgAAwIHRNE38+q//enzta1+Lo0ePxsbGRmxtbcW5c+fi2WefjTNnzsTOzs6ijwkAfAriLgAAAABAD1WLPgAAAAAAADdP3AUAAAAA6CFxFwAAAACgh8RdAAAAAIAeEncBAAAAAHpI3AUAAAAA6CFxFwAAAACgh5pFHwAAYLeqqqKUEqWURR9lrlJKg/vvBPOUUtrzePrRtu0CTwUAcGcTdwGAhauqKpaXl2N1dTVGo1F0XbfoI31mHw+4OecYj8cxHo9jMpks6FSwOHVdx8rKSiwvL0dd15/43GngTSnNfqPn/fffj52dndmvC1X1wZsPc877e3AAgB4QdwGAhUopxfr6enzpS1+KRx99NDY2Nnodd6dKKZFSiq2trThx4kQcP3482rY1vcuBc+jQofiN3/iN+OIXvxjr6+uf+NyPT++Ox+N45ZVX4le/+lVcvnw5uq6bRV8AAMRdAGDBqqqKo0ePxuOPPx7f//7346GHHhpE3J1OFZ47dy5++MMfxtmzZ+Py5csLPhXcXimluPfee+PJJ5+MP/qjP4oHH3zwU/1x03h76dKl+MlPfhJ///d/H+PxOHZ2dqxpAADYRdwFABaqlBJN08SRI0fikUceiS984QuLPtLc5Jzj1KlTcffddwtSHEjTlSv3339/PPLII/Hwww9/6j+2lBIXLlyIY8eOxfLycnRdN5uIN7kLAPCBatEHAAA4CMQoDqJSSuzs7ETE3pULAADMh8ldAAB6bRoNpwG9qqrZTbd2K6VEzllov41KKf73BgDYR+IuAAC9l1KK1dXVOHr0aHzuc5/bE3e7routra04f/58XLhwYYGnBACA+RJ3AQDotene5nvvvTeeeOKJ+Pa3vx1N89HL3LZt49SpU/HUU0/FM888E1tbWws87cFiahcAYH+JuwAA9F5VVXHo0KF47LHH4nvf+16srq7O1jVMJpN47rnn4sSJE/Hf//3fCz4pAADMj7gLAEDvTSdEV1ZW4vDhw7G+vh51XUdExHg8jo2NjajrOnLOkVIyUQoAwCBcfacJAAAAAADueOIuAAAHynRdAwAA9J24CwAAAADQQ3buAgC9U0qZTV9Od6fu5x7VUkpUVbXnewEAACyauAsA9M7uuJpzjosXL8bW1ta+xd2UUtR1HXfddVesrKzsy/cAAAC4WeIuANBrbdvGK6+8Er/4xS/ijTfe2JfvkXOOX/u1X4vHH388vvzlL8fq6qrpXQAAYOHEXQCgt0op0XVdnD17Nn7yk5/Ef/3Xf+3L98k5x7e+9a348pe/HF/4whdibW1tX74PAADAzRB3AYBeyznH1tZWnDt3Lk6fPh1d1819PUNKKb70pS/F5uZm5Jzn+nMDAAB8VuIuADAIdV1H0zTRtu2+xF0AAIA7TbXoAwAAwDyklGYh/uNBfr9utgcAAIsk7gIAMBgppaiqvS9xp2F3GnyFXgAAhkLcBQCg93ZP7H7SGo1rxV8AAOgrr2wBAOi1qqqirus9n0+Z0gUAYMjcUA0AgF7LOUfXdbOp3aZpZrF3Oqk7/QAAgCERdwEA6LXpGoa2bWNzczPOnTsXo9Fodn0ymcTFixdjPB5HxAcxGAAAhkDcBQCg99q2jXfeeSd+/OMfx7vvvrtnTUPbtnH27Nl48cUXYzweR13X0bbtAk8LAADzIe4CANBrpZToui4uXrwYP/3pT+P555/fc1O1nHOMx+O4fPlyTCYT6xkAABgMcRcAgEFo2zbOnz8f58+f/8TndV13m04EAAD7y9gCAAAAAEAPibsAwGCUUhZ9BAAAgNtG3AUAAAAA6CFxFwAYjN030QIAABg6cRcAGIxSSpRSRF4AAOBAEHcBAAAAAHpI3AUAAAAA6CFxFwAAAACgh8RdAAAGIaU027ds7zIAAAdBs+gDAADArdodc1NKUVVVlFJmX5s+3v01AADoO3EXAIDemkbdUkpUVRVVVcXS0lJU1UdvUMs5R9u2kXOefQAAwBCIuwAA9NZ0FUMpJVZXV+PIkSNx//3374m7m5ubceHChbh06VJsbm5GKcUELwAAgyDuAgDQWznnqOs6lpeX4957742/+qu/it/5nd+JQ4cORV3XUUqJK1euxPHjx+Nf//Vf49///d+j6zpxFwCAQRB3AQDotZxzlFJibW0tvvSlL8V3v/vd2NjYmMXdra2tWF9fj+effz6qqrKWAQCAwRB3AQDovd2TuGtra7G6uhpN00QpJeq6jrW1tRiNRjEajRZ4SgAAmK/qxk8BAIA73/V26U738rZtG23bzm7CBgAAfSfuAgAwCNOIez0555hMJuIuAACDIe4CAAAAAPSQuAsAAAAA0EPiLgAAAABAD4m73FZ23AEAAADQN3dq0xJ3ua2udQdrAJiX6Q21/PMGAACYpzv1/2OIuwAAAAAAPSTuAgAwOLvfNnenvoUOAABuVbPoAwAAwDxVVTVb0QEAAENmchcAgEG5U/ehAQDAvIm7AAAMTilF5AUAYPDEXQAABmV31BV4AQAYMjt3AQAYlK7rom3biPgg7uac91wXfAEAGApxFwCAQcg5x3g8jnPnzsXW1laMRqPIOUdVVbGzsxNd1y36iAAAMFfiLgAAvVZKibZt44033ogf/OAH8dxzz0Vd17Pr29vb8fbbb8eJEyfs4gUAYFDEXQAAei/nHJubm/HCCy/Eiy++eNW1rutiMpnM1jUAAMAQiLsAAPReKSW6rovNzc2rduymlKKqKlO7AAAMjrgLAMAgTAPvVEpp9vWcs7ALAMDgiLsAAAzS7pgr7AIAMETVog8AADAvAh4AAHCQiLsAAAAAAD0k7gIAgzHdsQoAAHAQ2LkLAPReSmkWdnc/nvfPLx4DAAB3EnEXAOilUkqklKKqqjh06FB87nOfi7vvvnv29Xl+n/F4HHfffXesra1FVV39xqd5f08AAIBPQ9wFAHoppRSTySSaponf+q3fir/7u7+L73//+/vyvXLO8cADD8TXv/71WFtbE3MBAIA7grgLAPRWXdfRdV3cc889sbGxETnna07W3qpSSiwtLcXKyko0TSPs9tT0z1spZcEnAQCA+RB3AYDeqqoquq6LlZWVWFtb27N3d56mk7qTySTato26rvclIgMAANwMcRcA6LWqqma7d/fb7mhs+vPOU1XVbLr643LOMZlMYjKZ+HMHAMBgiLsAQK/dzgna3dFQILyzVFUVhw8fjq9+9avx4IMPXhXi33vvvXj11Vfj1KlTCzwlAADMl7gLAPTeInbg2rt7Z2maJo4cORJPPvlkPP7443tCfNu28fLLL8e//Mu/xJkzZ6LrugWeFAAA5kfcBQCg11JKUdd1rK2txRe/+MX49re/HaPRaHZ9MpnEaDSKp556SpQHAGBQxF0AoLemNzrbb4Lgna2UEjnn2V8Py8vLsbS0NLu+tLQUq6urEeHPJQAAw+I2zwBAbwl1fFxKKba3t6OUMrvZXs7ZKgYAAAZJ3AUAoPdKKbOP610HAIChEXcBADgQBN7bb97T9ab1AQD2EncBABiEG+1gFgYBABgaN1QDABYqpRSllJhMJrG9vR2XLl2KqhrG7z/nnGNrayvG43G0bbvo48Btl1KKlFJMJpPY3NyMS5cu3TCyTyes67qO7e3taNs2tra2ZjfNAwDgI+IuALBQpZS4cuVKnDx5Mn7+85/H5z//+UUfaS6qqoqu6+Ktt96KkydPxmQyWfSR4LZLKcV4PI4TJ07E008/HUeOHLnhb95Mb37XNE1cuXIlXnzxxbh06VLknCPCeg0AgN3EXQBgoXLOcfHixXjmmWfirbfeitXV1Vnc6atSSlRVFTnn2NzcjLfffjsmk4kotc+sXbjzlFLi/Pnz8R//8R9x7NixWF5evm7cnf79UUrZE3LfeuutuHLlir9/AACuQdwFABYqpRRbW1tx8uTJOHPmTHRdtyfy9FEpZbb/dRocx+Pxgk91MPT1r5mhyjnH5cuX46WXXorjx4/Pou2NQvzu51nHAABwfeIuALBw05271wugfZzI3B2oh7JD+E42/WtEBLwz7ezs3NTzp3/PTH+jJOKj/dwAAHxE3AUAFmp3vPmk5/TZdAqR/ed/62HIOV8Vc/v+6wAAwH4wRgIAwGAIgAAAHCTiLgAAvbd7vzEAABwU4i4AAINgJysAAAeNnbsAAPTa7qndnHPknGMymUTbthERMZlMIuccVVVFXdeLPCo3QagHALgxcRcAgN4rpcT29nacOXMmnn322Wiaj17m5pzj2LFjcfHiRcEQAIBBEXcBAOi9ruvi3Llz8dRTT8Vrr70WVfXB9rGUUuSc48KFC3H8+PEYj8fWNwAAMBgpIryyBQCgt6ZrGUopsbS0NAu301UN0x9LKdF1XXRdJ+4CADAI4i4AAIMyjbkftzv6irsAAAyBuAsAAAAA0EPVog8AAAAAAMDNE3cBAAAAAHpI3AUAAAAA6CFxFwAAAACgh8RdAAAAAIAeEncBAAAAAHqoWfQBAABgvlJEpEjXuFJm/1lu54EAAGBfiLsAAAxI2vXx0VcirpVzBV4AAPrNWgYAAHotpfThj1VEqiLSB3G3RIkS+cOEO028efpHRVxzthcAAPrD5C4AAAOQIlKKuqqjpCqauolUIlKJqFOKUiImXRttbiOlFKXkKCWH6V0AAPpM3AUAoNdKKVFVVaytrsV99z8QX/zSr8fqykrUUUeKiJJzvPfe+3Hq9Kl4/c03ostdFE0XAIABEHcBAOi1lFI0dRNHjhyJP3ziiXj8//+DOLR26IPp3YiYTNo4ceJE/J8f/Z945913Ymu7DXUXAIAhEHcBAOi9qqpifX09vv71r8Xv/u7/FxvrG1E3dUSJ2NkZx/rh9Xj2uf8bKedI2ToGAACGQdwFAKDXyodTuClFjJaW4vDhjVjf2Ii6SlEiot5qYnl1Oeq6ity1EdFFiiTvAgDQe+IuAAADUCKiREoffJZSRHz4OFKJHCW6kqNE2RV15V0AAPqtWvQBAABgXlJEtJNJlC5Pe+8HP5QcuZQoKUWK6sPEK+4CANBv4i4AAINSSvng42MzuiVKpLr64COlSNMxXwAA6ClrGQAA6LWUPtifm1KKZtTE8vJS1E09i7cpSkTJUUqO6baGUrK5XQAAes/kLgAAgzBdtFBKjt0rF2YTuqVE5BIly7oAAAyDuAsAwGBUu++k9rGGW4qoCwDAsIi7AAAMysd36U5zbyoffQ4AAEMg7gIAMHgpUnz4bwAAGAxxFwAAAACgh8RdAACGLU1HdtOHN12zexcAgGEQdwEA6L1SyifeMC19uJDhg+fdrlMBAMD+EncBAOi96U3U8u5ym3b98OFd1cqH/wIAgCEQdwEAGIxSyocRd9fnEVFXVUSUmHRtlF3XAQCgz8RdAAB6bfc6hpxzTNo2JpNJdF0XXddFKSVSSlFVVdRNbXIXAIDBaBZ9AAAAuBXTlQxt28b7778fJ06ciEOHDkXTNFFKiZ2dnThx4kRcuHAh6rr+xN28AADQJ+IuAAC9l3OOixcvxi9+8Yt47bXXYnV1dRZ327aN119/PY4dOxaTyWTRRwUAgLlJYeUYAAA9llKKlFIsLS3FkSNHIiKiaZrZRG8pJba3t+O9996Lra2tRR4VAADmStwFAKD3piG3qj66pcTu9QulFOsYAAAYHHEXAAAAAKCHqhs/BQAAAACAO424CwAAAADQQ+IuAAAAAEAPibsAAAAAAD0k7gIAAAAA9JC4CwAAAADQQ+IuAAAAAEAPibsAAAxCSukzXQMAgL5qFn0AAAC4VSmlWcD9tCG3lLKfRwIAgH0n7gIA0HullKiqKlZWVmJlZSVSSrN4W0qJrutiMpnEeDyOUoqwCwDAIIi7AAD0XlVVsba2Fg888EA89thjUdf1LPCWUuLSpUvx2muvxalTp2Jra2vRxwUAgLkQdwEA6L26ruPIkSPx53/+5/Enf/Insb6+HqPRKHLOMR6P44UXXogf/OAHcezYsUUfFQAA5kbcBQCg96qqivX19XjooYfi0UcfjfX19VhaWoqcc+zs7MSVK1fi6NGjsbS0FDs7O4s+LgAAzIW4CwBAr6WUZmsYRqNRrK6uxqFDh6KqqiilxGg0irW1tU99ozUAAOiLatEHAACAWzHdrZtzjqZpoqqqSClFSmkWeLuumz1neg0AAPrO5C4AAL01jbTTG6dNw+5uOefIOe95HgAADIHJXQAAeunTTt+a0gUAYKjEXQAADgyhFwCAIRF3AQAYPOsYAAAYInEXAIADw+QuAABDIu4CAAAAAPSQuAsAAAAA0EPiLgAAvTTdobt7l24pJXLOizoSAADcVuIuAAC9daObpLmRGgAAQybuAgAwCCmlTwy5Ii8AAEMj7gIAMBjXmtS1qgEAgKESdwEA6LXdQXf6OOc8e1xKiZRSpJQWfFIAAJivZtEHAACAeck5x87OTmxvb8fS0lJ0XRdd1+1Z2TCNvNY0AADQd+IuAACDUEqJ8Xgcp0+fjkOHDsVoNIqcc2xvb8crr7wS586di8lksuhjAgDA3KSIMLIAAEBvpZRiaWkpjhw5Et/4xjfivvvui6r6aPtY27Zx9uzZeOGFF+LNN980uQsAwGCIuwAA9F5KKZqmifX19ajr+qprbdvGlStXYmdnR9wFAGAw7si4u3snGgAAfFq7J3andsfcnPPtPhIAAOwbO3cBABiE6YDA7iEBQwMAAAzZJ07uTicfbueEQ0opqqqKrutu2/cEAAAAAOibG07uTt/GVlVVlFKu+Va3eZlOWky/JwAAAAAA1/apdu7WdR2rq6uxvr4eS0tL+3KQnZ2duHTpUmxtbV3zLXUAAAAAAHzkU03ujkajeOCBB+I73/lOHD16dF8ma0+dOhW//OUv4+TJk7MJYasZAAAAAACu7VPF3ZWVlXj44YfjL//yL+M73/lONM3878P2s5/9LMbjcZw5cybathV3AQAAAAA+waeKu9OP1dXVuOuuu/Yl7m5sbERd19G2bZRSom3buX8PAAAAAIChuKlKuzv07gc3UgMAAAAA+HSqRR/getxMDQAAAADg+u64uGt6FwAAAADgxua/PBcAABYgpRSj0Wj2uKqq2eBAzjnatnVfBwAABkXcBQCg96qqitXV1Xj44YfjyJEjUdd11HUdVVVFKSUuX74cZ86cibNnz0bXdYs+LgAAzIW4CwBA79V1HUeOHIknnngivvvd78ZoNIqqqqKu62jbNk6cOBE/+tGP4t13342tra1FHxcAAOZC3AUAoPeqqorDhw/HN7/5zfje974XS0tLs8nd8Xgc//mf/xnPPfdcVNUdd8sJAAD4zMRdAAAGoeu6mEwm0TTNbHJ3upahrutFHw8AAOZuLnF3eqOKm1FKmce3BgDggNr9GnR6A7XpZG7TNLPH02sAADA0XuUCADA4KaVrDiAYMAAAYEjEXQAAAACAHhJ3AQAAAAB6SNwFAAAAAOghcRcAAAAAoIfEXQAABmF6s7RSihunAQBwIIi7AAD03jTm5pyv+tpUSum2ngkAAPabuAsAwODknPfE3eljgRcAgCFpFn0AAAD4LK61eiGlNAu4H1/TsHuqFwAAhsDkLgAAvTcNuLuDLgAADJ3JXQAABulaaxkAAGBITO4CADA4pngBADgITO4CADAI03270/260x+7rrtqbQMAAAyBuAsAwCBMJpN455134uWXX47RaDT7etu2cfr06djc3IyImAVgAADoO3EXAIDe67ouLl68GD//+c/jvffei7qu91x766234tVXX51N8QIAwBDcctxNKc3jHAAA8Jl1XRfnz5+Pp59+On7+85/vuVZKifF4HNvb29G27YJOCAAA83fTcXf3pIOwCwDAnaLrurhw4cJ1X6NOd+5aywAAwFB8psnd6YtiAAC4U0yDrXALAMBBUS36AAAAAAAA3LybjrsmIQAA6DOvZwEAGApxFwAAAACgh6xlAAAAAADoIXEXAAAAAKCHxF0AAAAAgB4SdwEAAAAAeqhZ9AEAAOBWpJT2fO4GwAAAHBTiLgAAvVZK2RN4q+rqN6ftDr7iLwAAQyHuAgAwGCmlaJrmqsBbSomcc7Rtu6CTAQDA/Im7AAD0Wkop6rqO9fX1ePTRR+OBBx64Ku6+//778corr8SpU6cWdEoAAJg/cRcAgN6r6zruueeeePLJJ+P3f//3o2k+epmbc47jx4/HD3/4w3jzzTdjZ2dngScFAID5EXcBAOi1lFJUVRUrKyvx8MMPx7e+9a1YW1ubXZtMJrG8vBw//elPo67rBZ8WAADmR9wFAGBQ6rqOlZWV2U3W6rqOpaWla95oDQAA+swrXAAABiGlNAu6AABwEIi7AAD0XiklIkLcBQDgQBF3AQDotWnYBQCAg+aGcdeLZei36VtUTTIB0HfX+2dZKWX24Z93AAAcJCZ3AQAAAAB6qFn0AYD9ZfoegIPAzl0AAA4ik7sAAAAAAD0k7gIAAAAA9JC4CwAAAADQQ+IuAAAHgn28AAAMjbgLAEDvTcNtKeWaEdcN1wAAGCJxFwCAQZoG3VLK7DEAAAyJuAsAQC9cL9CmlGYTuTnnSClF13VXxd3dzwMAgCEQdwEAGIxpyO26LnLOkXOehd2qqqKu6xiNRos+JgAAzEWz6AMAAMBnVVUfzCrknGM8Hsfrr78ezz33XCwvL0dd11HXdYzH4zh+/Hi8++67s+gLAABDIO4CANBb09ULbdvGuXPn4t/+7d/ipZdeiqZpoq7rqKoqcs7x7rvvxrFjx2J7e1vcBQBgMMRdAAB6a/de3ffffz+effbZeP7552drGKY7druui+3t7WjbdpHHBQCAuRJ3AQAYhK7rYnNzc9HHAACA28YN1QAAAAAAekjcBQAAAADoIXEXAAAAAKCHbhh3pzehAAAAAADgzmFyFwAAAACgh8RdAAAAAIAeEncBAAAAAHpI3AUAoNdSSp94n4gbXQcAgL5qFn0AAACYt2vF3JRSlFIWcBoAANgf4i4AAL22O9hOo+614m4pZc/XhV4AAPpO3AUAoPeqqoqqqmJ5eTmaprkq4nZdF+PxOCaTiagLAMBgiLsAAPRaSimqqorDhw/HY489Fg8++GDUdT27vrOzE++++26cPn06zpw5Ezs7OwIvAACDsLC4a+cZAAC3Yvd0bl3Xcd9998Vf/MVfxO/93u/F+vp61HUdOedo2zb+53/+J/7xH/8xTp8+7TUoAACDcUdO7gq/AADcjJRSpJRiaWkpvvCFL8T6+no0TROllNje3o5z587FPffcE6PRKEopMR6PF31kAAC4ZZ8Yd6fTELcjtE7fTldVVXRdt+/fDwCA/pu+Tp3eLC2lFKPRKJaWlqJpmsg5R0TEaDSKtm1nHwAAMATXjbsfD7v7EXh3v5Vu+mL8Wnc2BgCAG5kOC+x+Tbn7cSklSimz4AsAAH1XXe/C7pg7fQFcVdd9+i2bvhifPhZ5AQD4JNcaPvj468jrPQYAgCG4Ya2dTjd0Xbdninf6MU+7fz4vvgEA+DR2T+kCAMBB8olxdxpbp29vmwbe/Qi7bdvGZDKZ/bxepAMAAAAAXN8n3lAt4oOw2zRNNE0TXdfFpUuXYjQaza7Na1XD5cuXY2trK7qum/289qEBAAAAAFzbDeNuKSW2t7fj9ddfj+effz7ee++9PTeqmNdk7cmTJ2NnZ2dfpoIBAAAAAIbmU8XdnZ2dOH36dPzDP/xDNE2zL6sSrly5EufPn4+6riPnPJvaFXoBALiWlNKelWHTe0UAAMBB8anibtd1sbm5Ga+88sq+7cCdfh9RFwCAz8I7wAAAOGhuGHencs4xHo/38ywR8dEEBgAAAAAA1zefu6HNwXR/r7ALAMBntR/3hgAAgDvVp57cvd1EXgAAbsb1Ym5d11HXdUR4jQkAwLDcMXHXC20AAG7W7qBbSomUUuScr7rR2vQ6AAAMyR2zlgEAAG7GNObuDrzTtQy7tW07u3fEta4DAEBf3TGTuwAAcLNyzhHxwQRvXdezmwDv7OxEVX0wx7C9vR07OztRSomqqkzwAgAwGOIuAAC9l3OOy5cvx5kzZ+KXv/xlrK2txWg0ipxzdF0XJ06ciPPnz0fbtos+KgAAzE2KCKMLAAD0WlVVsba2Fl/5ylfiyJEje9Y1TMPvG2+8EWfPnhV4AQAYDHEXAIDem8bc1dXVq66VUiLnHG3bRtd11jIAADAY4i4AAIORUrpuvJ0G4Ol1kRcAgL4TdwEAGLTpeoYpURcAgKGoFn0AAAC4XYRdAACGpFn0AQAAYL980poGAADoO2sZAAAAAAB6yFoGAAAAAIAeEncBAAAAAHpI3AUAAAAA6CFxFwAAAACgh8RdAAAOhJRSpJQWfQwAAJgbcRcAAAAAoIeaRR8AAABuxXQit5QSTdPE8vJypJSiqqrZpG7btjGZTGIymUQpZcEnBgCA+RB3AQDovZRSLC8vxxe/+MX4yle+Ek3TRNM0Udd15JzjwoUL8eqrr8Zrr7226KMCAMDciLsAAPTadBL37rvvjieeeCK+973vxdLSUjRNE1VVRdd18fLLL8c///M/x+nTp6PrugWfGAAA5kPcBQCgl6YrF0opUdd13HXXXfHNb34zvvOd78Ty8vIs7rZtG0tLS/HUU09FVbnlBAAAwyHuAgDQO9OwO308/ei6LlZXV2NlZSXqup7t4l1dXZ09BwAAhsLoAgAAvXK9SDu9idrH5Zxnqxjqut738wEAwO0i7uWr4N0AACAASURBVAIA0GvTnbsRcc3oO71eStnzXAAA6DtxFwCA3vq0sVbUBQBgiMRdAAAODHt3AQAYEnEXAAAAAKCHxF0AAAAAgB4SdwEAGAy7dQEAOEjEXQAAeut6+3Pt1QUA4CAQdwEA6LXdIbeUEjnnyDkv8EQAAHB7NIs+AAAA3IwbrV7oui7qur5NpwEAgMUxuQsAwKDknO3eBQDgQBB3AQAYhFLKVVH3Rp8DAECfibsAAAzGNN660RoAAAeBnbsAAPTOtSJuVVWzXbvj8Xh2LeccXddZ1wAAwOCIuwAA9F4pJSaTSZw7dy6OHz8eTfPRy9y2bePYsWNx4cKFyDkv8JQAADBf4i4AAL01ncTNOceFCxfiZz/7WbzxxhtRVR9tHxuPx/HGG2/E8ePHo+u6RR0VAADmLkWE96YBANBrKaVYWlqK9fX1q/bqllJiZ2cnrly5MvvcegYAAIZA3AUAYBBudLO0adCtqsp6BgAABsFaBgAABuHTTuOa2gUAYCiqGz8FAAAAAIA7jbUMAAAAAAA9ZHIXAAAAAKCHxF0AAAAAgB4SdwEAAAAAekjcBQAAAADoIXEXAAAAAOAOkVL61M8VdwEAAAAAeihFRFn0IQAA4FZNJxw+PulQStnzIwAADEWz6AMAAMC8LC0txerq6p7AW9d1lFJia2srtra2RF4AAAZD3AUAoPeqqorDhw/HY489Fo899ljUdT27llKK8+fPx7PPPhsvvvhidF23wJMCAMD8iLsAAPRaVVUxGo3i85//fPzu7/5u/Nmf/VmMRqPZ9VJKvPjii/H+++/Hq6++GleuXFngaQEAYH7EXQAAeq2UElVVxdraWjz88MPxm7/5m7G8vBxV9cG9gyeTSWxtbcXhw4f3TPQCAEDfibsAAPRaKSVyztE0TTRNE3VdR13X0TRNpJQi57zoIwIAwL6oFn0AAAAAAABunrgLAAAAANBD4i4AAAAAQA+JuwAAAAAAPSTuAgAAAAD0kLgLAAAAANBD4i4AAAAAQA+JuwAAAAAAPSTuAgAAAAD0kLgLAAAAANBD4i4AAAAAQA+JuwAADEop5ZpfTynd5pMAAMD+EncBAOi1lFKUUqLrutmPOedZ5E0pRdM0Udd1tG274NMCAMD8NIs+AAAA3KqqqqKUEqWUGI/HUVVV5JyjruvY2dmJ7e3tmEwm153qBQCAPhJ3AQDovVJKbG9vx6lTp+KZZ56ZTeqmlGI8Hsf//u//xunTp2MymSz6qAAAMDcpIowvAADQa03TxF133RVf//rX47777rtqv+4777wTv/rVr+Ktt95a0AkBAGD+xF0AAHqvqqpomiZWV1ejrus911JK0bZtbG5u2rkLAMCgiLsAAAzGxyd2r8fuXQAAhkDcBQAAAADooWrRBwAAAAAA4OaJuwAAAAAAPSTuAgAAAAD0kLgLAAAAANBD4i4AAAAAQA+JuwAAAAAAPSTuAgDQWymlSCkt+hgAALAQ4i4AAIMg8gIAcNCkiCiLPgQAANyqa8Xd6ddKKVGKl70AAAxLs+gDAADAZ5FS2hNsU0oxGo1iNBpFSilyzrPndF0XbdtG13UiLwAAgyHuAgDQe1VVxdraWtx///1x9OjRqKqPto+VUmJrayvefvvteOedd2I8Hi/wpAAAMD/iLgAAvVdVVRw5ciT+9m//Np588snY2NiI0WgUXdfFzs5OPP/88/GDH/wgfvzjHy/6qAAAMDfiLgAAvVfXdWxsbMSRI0fi0UcfjY2NjWiaZja1e/ny5bjvvvuiruvIOS/6uAAAMBfVjZ8CAAB3nlJKVFW1ZwXDaDSKpmmiaZrZ45WVlVhZWYm6rqOu6wWeGAAA5svkLgAAvTW9OVopJUopkVKKlFJUVTV7nHOOrusiIsRdAAAGRdwFAKC3pnF3ahp0U0qzz3fH3enXAQBgCKxlAAAAAADoIXEXAAAAAKCHxF0AAAAAgB4SdwEAAAAAekjcBQAAAADoIXEXAAAAAKCHxF0AAAahlBKllKu+nlKKlNICTgQAAPtL3AUAAAAA6CFxFwCAwdk9rVtVVVRVFaWUyDkv+GQAADA/4i4AAINRStmzgiGlFHVdR9M0e2IvAAAMgVe2AAD0Xkpptm93unt39w7eafRtmiaaplnkUQEAYG68sgUAYDByzrGzsxPb29uxtLQUXdfNPh+Px9YyAAAwKOIuAAC9N92nu7OzE6dOnYr19fUYjUaRc45SSly4cCE2NzdjZ2cn2rZd9HEBAGAuUkSURR8CAABuRV3Xsb6+Hl/72tfi4Ycfjrqu91w/f/58vPTSS3HmzBlxFwCAwRB3AQDovZRSVFUVa2trMRqNrro+neodj8fRdd0CTggAAPMn7gIAMBhVdeP7Bdu7CwDAUIi7AAAcGCmlPZ+X4qUwAAD9dePRBgAAAAAA7jjiLgAAB8buSV1TuwAA9J21DAAAAAAAPWRyFwAAAACgh8RdAAAAAIAeEncBAAAAAHpI3AUAAAAA6CFxFwAAAACgh8RdAAAOnJRSpJQWfQwAALglzaIPAAAAt2oaa1dWViKlFHVdR1VVUUqJnHO0bRuTySS6rlv0UQEAYG7EXQAAeq+qqjh8+HB89atfjYceeiiWl5ejaZrIOcdkMol33303Xn755Xj99dejbduIiCilLPjUAABwa8RdAAB6bTqpe/To0fjjP/7j+MM//MNYW1uLpmmilBLj8Th+9atfxT/90z/Fm2++GZPJZNFHBgCAuRB3AQDovZRSLC0txUMPPRTf+MY34tChQ7O4O5lMYjKZxOc+97lIKUVVVZFzXvSRAQDglom7AAD0WilltmKhlBJ1XUdd17M9vNOdu9OvC7sAAAxFtegDAMC1zPtO9vP8uYA7z/TXjGnk/fivIfP+NQUAAO4E4i4AB4IbJwEAADA01jIAcEcSYwEAAOCTmdwFAAAAAOghcRcAAAAAoIfEXQAAAACAHhJ3AQAAAAB6SNwFAAAAAOghcRcAAAAAoIfEXQAAAACAHhJ3AQAAAAB6SNwFAAAAAOghcRcAAAAAoIeaRR8AAAA+q5TS7HEpJcbjcYzH47hy5crs2ng8jslkEjnnqOs6mqaJtm0XdWQAAJgbcRcAgN6aBtycc1y5ciVOnDgRTz/9dDTNRy9zc87x8ssvx5tvvhk556gqb14DAGAYUkSURR8CAABuRV3XsbGxEV/5ylfivvvuu2qi97333ouTJ0/GW2+9FTnnyDkv8LQAADAf4i4AAINQVVVUVRV1XV91rZQSOefoum72OQAA9J24CwDAIEyndXdP7UZ8FHJLKZFSEnYBABgMcRcAAAAAoIfcTQIAAAAAoIfEXQAAAACAHhJ3AQAAAAB6SNwFAAAAAOghcRcAAAAAoIfEXQAAAACAHhJ3AQAAAAB6SNwFAAAAAOghcRcAgF5LKUVK6YbPAQCAoWkWfQAAALgVpZQbPqeqqqiqKnLO0XXdbTgVAADsP3EXAIBBqKoqmqaJ1dXVa07qdl0X29vb4i4AAIMh7gIA0Ht1XcfGxkY88sgj8du//dtR1/XsWikl3nvvvXjppZfipZdeislkssCTAgDA/Ii7AAD0XlVVcc8998Qf/MEfxJ/+6Z/GyspKVFUVpZRo2zaOHz8ek8kkjh8/vuijAgDA3Ii7AAD0XlVVsba2Fo888kh84xvfiEOHDkXTNFFKiZ2dnWjbNtbX161kAABgUKpFHwAAAOapqqqo6zrquo6qqq65fxcAAIZA3AUAYFCmcTelNAu8AAAwRF7pAgAwKNNpXRO7AAAMnbgLAMDgTMOuwAsAwJCJuwAADIqgCwDAQSHuAgAAAAD0kLgLAAAAANBD4i4AAAAAQA+JuwAAAAAAPSTuAgAwKKWUKKUs+hgAALDvxF0AAAYjpbTn81JKpJSu+joAAAyBuAsAQO/cKNhOr02ft/tzAAAYCnEXAIDema5dSClFVVWzaFtKiZxz5JyvWs9QSom6rhdyXgAA2A/iLgAAvbQ73lZVNXucc46u62ahd/rjeDyOtm2jqrwEBgBgGJpFHwAAAG7F7ine6dRu13WRUopSSrRtG23bzmJwznnBJwYAgPkQdwEA6L2cc0wmkzh58mT85Cc/ibW1tajrOkopMR6P44UXXojXX3892rZd9FEBAGBuUkSUGz4LAADuUCmlaJomNjY24pFHHol77703RqPRbFXDZDKJd955J06cOBFvv/32oo8LAABzI+4CANBr05upRUSMRqNYWVnZ87W2bWMymUTXddF13SKOCAAA+0LcBQBgMKqqipTSnrg7vanadDcvAAAMhbgLAMBgTG+iBgAAB4G4CwAAAADQQ9WiDwAAAAAAwM0TdwEAAAAAekjcBeD/sXdn3XFcZ5rvn70jcsI8cSYljppJTTblclmTy+WhfSy3XT612n1z+hPUl+lz3+tc1lm1XN2ucrcttQfJ1miboiiJIiUBlMRBBEnMyDEi9u6LzEgkBlIECRKI5P+nBSEzIzKxIwGldj75xrsBAAAAAEAGhZs9AAAAAGAjGWPWvJ2F1gAAANBtqNwFAABAV1krxCXYBQAAQDci3AUAAEBXMMa0q3Y7w1yCXQAAAHQrI4nZLgAAAAAAAABkDD13AQAAkHmdfXbXquD13lPBCwAAgK5DuAsAAICukcvlVCgUFASBpKVwN0kS1et1xXG8bH8CXwAAAGQZ4S4AAAAyyRgj772MMbLWqre3V48//riOHj2qUqmkXC4n772cc5qdndWpU6f0zjvvSCLUBQAAQHcg3AUAAEBmpe0XgiDQzp079b3vfU8/+tGP1NfXp1wuJ+ecGo2GTp8+rZmZGZ04cWJV9S4AAACQVYS7AAAA6AphGGp0dFS7du1aFu5GUaTJyUkVCoVlvXkBAACArLObPQAAAADgdqStGYIgUBAECsNQYRi2L6e3d14HAAAAugHhLgAAADKrs3eutVbGmPaXpGWX0+sAAABAtyDcBQAAQNfz3rcXV3PObfZwAAAAgA1BuAsAAAAAAAAAGUS4CwAAgK6QVude7/a1tgEAAABZRrgLAACArkB4CwAAgHsN4S4AAAC6QrqgGgAAAHCvINwFAAAAAAAAgAwi3AUAAAAAAACADCLcBQAAAAAAAIAMItwFAAAAAAAAgAwi3AUAAAAAAACADCLcBQAAQGYZYzZ7CAAAAMCmIdwFAABAphHwAgAA4F4VbvYAAAAAgI3gvZdzTnEcK45jee8lqX3dObfJIwQAAAA2FuEuAAAAMikNb4MgUBiGqtfrGh8f15tvvqkwXJrm1ut1ffjhh5qYmCDgBQAAQFcxkvxmDwIAAAC4VdZa5XI5FYtF7du3T/39/cu2e+81OzurCxcuqFwut0NhAAAAIOsIdwEAAJB5xhhZa1UoFNYMb51ziqKIyl0AAAB0FcJdAAAAZN71FlXrDHrTfYIgUBzHd2VcAAAAwJ1Ez10AAABk3s20WvDeyxhDWwYAAAB0DSp3AQAAAAAAACCD7GYPAAAAAAAAAACwfoS7AAAAAAAAAJBBhLsAAAAAAAAAkEEsqAYAQMYYY9qXWRgKAAAAAO5dVO4CAAAAAAAAQAYZSZT8AAAAAAAAAEDGULkLAAAAAAAAABlEz10AAAB0FWOMrLWy1rZ7VDvnFMfxJo8MAAAA2FiEuwAAAMisNLz13iuXy2loaEgjIyMKw1BBECgIAjnnVK1WNT09rdnZWSVJwmKEAAAA6AqEuwAAAMg0Y4yMMRocHNQzzzyj48ePKwxDhWEoa63iONaXX36pEydO6MSJE6pWq4S7AAAA6AqEuwAAAMi0tGp3ZGREzz77rH7605+qUCi0K3cbjYbee+89TU5O6t1335VzbrOHDAAAAGwIwl0AALAlpKfXd6K6El/Fey9jjIIgUD6f1+joqHbs2NEOd621ajQaGhwcVBAECkOmvwAAAOgezG4BAMCWQJALAAAAAOtjN3sAAAAAAAAAAID1I9wFAAAAAAAAgAwi3AUAAAAAAACADCLcBQAAAAAAAIAMItwFAAAAAAAAgAwi3AUAAAAAAACADCLcBQDgHmWM2ewhAAAAAABuA+EuAAAAAAAAAGQQ4S4AAPco7/1mDwEAAAAAcBsIdwEAAAAAAAAggwh3AQAAAAAAACCDCHcBAAAAAAAAIIMIdwEAAJB53nsZY2SMURAEstbKGNPebq2VtVbOuU0cJQAAALCxws0eAAAAAHA7vPftr3K5rGvXrimXy7W3NxoNTU1NqVqtKo7jTRwpAAAAsLEIdwEAAJB53ntVq1WdOXNGhUJBQRC0t9XrdY2Pj+uzzz5TFEWbOEoAAABgYxlJfrMHAQAAANyKtBWDMUalUkm7d+9WX1/fspYMSZJofn5eV65c0eLioowx8p4pMAAAALKPcBcAAACZlwa2a/XVDcNQYRgqSRIqdwEAANBVCHcBAAAAAAAAIIPsZg8AAAAAAAAAALB+hLsAAAAAAAAAkEGEuwAAAAAAAACQQYS7AAAAAAAAAJBBhLsAAAAAAAAAkEGEuwAAAAAAAACQQYS7AAAAyDRjzJqXb7T/zewHAAAAbHWEuwAAALhnEOoCAACgmxDuAgAAINOMMbLWti9fr5I33ZbeRtALAACArAs3ewAAAADA7fDeS1I74E2l4e3K2wEAAIBuQbgLAACAzEoDXO+9jDEqFAoKgmDZPmEYyjmncrks51z79jQUBgAAALKKcBcAAACZ1dlmYWRkRMeOHdPhw4eXBbzee129elWnTp3S+Pi4nHMEuwAAAOgKhLsAAADINO+9wjDUyMiInn32WX3/+99XLpeTtVbWWjUaDX300UdqNBr64osvVK/XN3vIAAAAwIYg3AUAAEBmOefalbthGGrXrl16+OGHVSgUFIahrLWq1+tqNBoaGRmh/y4AAAC6CrNbAAAAAAAAAMggwl0AAAAAAAAAyCDCXQAAAAAAAADIIMJdAAAAZF7adxcAAAC4lxDuAgAAAAAAAEAGEe4CAAAAAAAAQAYR7gIAAAAAAABABhHuAgAAAAAAAEAGEe4CAAAAAAAAQAYR7gIAAAAAAABABhHuAgAAoKsZYyRJ3ns55zZ5NAAAAMDGIdwFAAAAAAAAgAwi3AUAAEBmpVW5kmStbV8Pw1BBEMh7L++9rF2a9nrv7/o4AQAAgDsh3OwBAAAAALcqDWrTEDcMQ8VxrDiOl23vvJzuAwAAAGQd4S4AAAAyzxgjY0w72E2SRMYYee9Vr9e1uLioarUq772SJNns4QIAAAAbgnAXAAAAmWaMkXNOs7OzOnHihCSpp6dHYRi2w93x8XFduHBBzjl575ctsgYAAABklZHEjBYAAACZlVbtFgoF7du3T0NDQwqCoN1z1zmncrmsy5cva2pqqh3wAgAAAFlHuAsAAIDM61xYrfPySp09egEAAICsI9wFAADAPSPtwwsAAAB0A8JdAAAAAAAAAMggu9kDAAAAAAAAAACsH+EuAAAAAAAAAGQQ4S4AAAAAAAAAZBDhLgAAAAAAAABkULjZAwAAAAA2kjFmzdu9Zx1hAAAAdBcqdwEAANBV1gpxCXYBAADQjQh3AQAA0BWMMe2q3c4wl2AXAAAA3cpIYrYLAAAAAAAAABlDz10AAAB0hbRqN63gXVm9SwUvAAAAug3hLgAAALpGPp9XPp+XtUvdx7z3SpJEjUZDcRwT8gIAAKBrEO4CAAAg84Ig0OjoqP7mb/5GR44cUU9Pj3K5nJxzqtVqunTpkt577z2dOXNGtVpts4cLAAAAbAjCXQAAAGReGu4+//zz+uEPf6i+vj7lcjl571Wv13Xy5EmVy2V9+umnmz1UAAAAYMMQ7gIAACCzjDGy1ioIAhlj1Nvbq7GxMfX39ysMQznn1Gg0NDo6qp6eHkmStZYevAAAAOgK9qt3AQAAALauNKQNgkDOuXbg2/k9DXOdc+0gOF2ADQAAAMgqwl0AAABkWhrcphW5awW36T5U6wIAAKCbEO4CAAAgk2628vZ6YS8AAACQdYS7AAAAuCdQvQsAAIBuQ7gLAACAe0JavUu4CwAAgG5BuAsAAICuxwJqAAAA6EaEuwAAAAAAAACQQYS7AAAAAAAAAJBBhLsAAADoKiyaBgAAgHsF4S4AAAAAAAAAZBDhLgAAALpKZ9UuVbwAAADoZoS7AAAA6DqEugAAALgXEO4CAACgq6ys3AUAAAC6FeEuAAAAuo5zrn2ZgBcAAADdKtzsAQAAAAAbwXuvJEkURZGiKJLUDHmjKFIcx8sCXwAAAKAbEO4CAAAgk9KKXGutnHOamZnRyZMn1dvbqzBcmuY2Gg1NTEzo3LlzCoJAjUZjs4YMAAAAbCgjifPUAAAAkGnGGOVyOQ0NDWlgYEDGmPY2a63q9bqmp6dVqVTknGsHw7RsAAAAQJYR7gIAACDz0jDXGKMgCCStDm5XhrrGGMJdAAAAZBrhLgAAADKvs1K3E+EtAAAAuhnhLgAAALrCjSpxqdIFAABANyLcBQAAAAAAAIAMsps9AAAAAAAAAADA+hHuAgAAAAAAAEAGEe4CAAAAAAAAQAYR7gIAAAAAAABABhHuAgAAAAAAAEAGEe4CAAAAAAAAQAYR7gIAAAAAAABABoWbPQAAAABgIxlj2pe995s4EgAAAODOItwFAABAJhljloW3QRCot7dXvb29q/ZNkkTValXlclnOubs5TAAAAOCOIdwFAABA5llr1dfXp0cffVQPP/ywrF3efWx2dlYfffSRPv74Y0VRREUvAAAAugLhLgAAADIvCAKNjo7qxRdf1M9+9jPlcrn2tiRJdObMGf3zP/+zPv30U0mrq34BAACALCLcBQAAQOYZY1QqlXTgwAE99NBDyufz7W2NRkPlclkDAwOSpDAMFccxAS8AAAAyz371LgAAAEA2eO8Vx7GSJJExRtbaZQusAQAAAN2EcBcAAAAAAAAAMohwFwAAAAAAAAAyiHAXAAAAAAAAADKIcBcAAAAAAAAAMohwFwAAAAAAAAAyiHAXAAAAAAAAADKIcBcAAAAAAAAAMohwFwAAAAAAAAAyiHAXAAAAAAAAADKIcBcAAAAAAAAAMohwFwAAAPcU59xmDwEAAADYEIS7AAAAAAAAAJBB4WYPAAAAALgV3ntZu1SrYIyRMUbW2vbt3ntJzWrdKIqW3ZZ+BwAAALKKcBcAAACZZoyR1AxroyhSpVJpB7mS1Gg0NDc3p1qtpiAI5L0n2AUAAEBXINwFAABAZqX9c621qtfr+uKLL/Tmm28qDJemudVqVadPn9aVK1dkrSXYBQAAQNcwkpjdAgAAINOCINDg4KAeeugh9fX1LdsWRZGuXr2qCxcuqFwuL6vqBQAAALKMcBcAAABdwRijfD6vOI5XbfPet6t8AQAAgFuRtgO7XRt5JhnhLgAAQJfonGzSegAAupsxRt779ncAwJ2VLt57pwsG0oWBb/bn0HMXAAAAAICM6Qx0NzrgXasyjQAZwL3MGCNrrQYHB9Xb29sOYDulH7glSSKpGc6ufK1O7xcEgaRmkGuMURAESpJE8/Pzmp+fV6PRuOmxEe4CAAB0Cd54A8C950699l/v1GP+XwPgXmStVV9fn5566ik99dRTKpVKiuNY3vt2YJuGt+nr5MrXy/R1deXZdun16elpffDBBzp58iThLgAAAAAAuDV3sioYALLIGKPe3l49/fTT+od/+AcNDQ2p0WjIe9+uwpWWKnGv9xjp62lnywVjjKIo0sTEhJIk0fj4uGZmZm56bIS7AAAAAABgmetVngHAvSoIAu3YsUOHDh3SyMiIkiRZVnkrLfXl7bRyn/S2ztvTKuDh4eE1Wz7cCOEuAAAAAAAZlfZqTAOF213JPa0sS3tFdl4GgHtZ+nqYviYGQdB+nVy531r3Xanz9ToIAoVhKOecoiha17gIdwEAAAAAyCBjjMIw1NDQkMbGxtTf37+s4utWg17vveI4Vrlc1tTUlKampgh4AUDNCtvOlgpp4LteK1veeO+VJImSJFEcx+t6LMJdAAAAdI3r9YakZySAbpO+rgVBoMOHD+s73/mOHn30UeVyOSVJ0q4oW6/0NOFGo6GJiQm98sorevPNN28pvACAbmOtbZ8tIS0tonYrj9NZ9eucaz/Wej+YI9wFAABAV+icZK9cDAgAuk36WhfHscbGxnT8+HG98MIL6u3tXbZ6+3qlr5+VSkWnTp3Shx9+yOsoALSsDF9vtR1O+kFaet/0A7T0NmvtTX+oRrgLAACAzOucHN8o1KB6F0C3KRQKCoJA9XpdlUpFhUJhXUFDGhJ39teN41hzc3OamppSvV6/g6MHgGxJF1HrdKvzy+vdb72PR7gLAACATFvrFLa1ViROqx8IeAF0g/Q1LZfLKZ/Pq1gsqlgsKgiCW26h0Ll6ez6fV6FQUD6f38hhA0Dmdb5WSht/llj6odvNthUj3AUAAECmpcFtGIbq6enRyMjIqqC30Whofn5eCwsLhLsAutJap/fe7P1WVu5KUhiGCkMiAwC4m67XZuxGeKUGAABA5llrNTg4qKefflp/+7d/qyAIlm2/fPmy3n77bZ08eVKNRmOTRgkAG2dlKNtZSda52M/NPpakZZVoURTd8irwAIBb1/mafDMIdwEAAJB5QRBoeHhY3/zmN/WTn/xEPT097W1Jkuj06dO6fPmyTp06tYmjBICN11lx2xnubuRjAwDurvW89hLuAgAAoCvk83nt2rVLu3fv1tDQUDvkiKJI165dU6lUIqQA0DVWnrK7kUFs5+NQuQsAW9vaywgDAAAAAIB7VmcPXwDA1kXlLgAAAAAAkLR81XdrLZW7ALDFEe4CAAAAAABJy1dq71y0DQCwNRHuAgAAAAAASatXaU+ShIAXALYweu4CAAAAAIBlqNwFgGwg3AUAAAAAAKuk4S4AYOsi3AUAAAAAAKsQ7gLA1ke4CwAAAABAxtyt0DXtwQsA2JpYUA0AAAAAgIxKe+J29shN3W4wS7ALXkDDuQAAIABJREFUAFsf4S4AAAAAABmThrjpd2ttO9x1zsna9Z+om4a5xpj2/WnLAABbG+EuAAAAupK1llACQNdKg9zOcDcIAkmSc669z3ofb+V9qN4FgK2NcBcAAAD3DEIKAN0iDWODIGhX2gZBIO+94jhWGK5+u3+j18DOqt3O9g68bgLA1ka4CwAAgMxKQ4j0svdeYRgqSZJ2yOGco4IXQNey1ioMw2Vhb6lUuu1QNooiTU9Pq16vb9BIAQB3AuEuAAAAMis9hTgMw2WX06BDknK53LLrKxccAoAsSl/TFhYWdOnSJZ09e1YDAwPK5XKKoqj9Wti5780EvsYYBUGg+fl5nT17VpcuXWq3eQAAbD2EuwAAAMi0zurcer2uq1evqqenp125G0WRZmdnVa1W2wEw4S6ArEtfx5Ik0SeffKJ/+Zd/0WuvvSZJ7bYMxWKxvdDazVbyph+SOec0MTGhzz//nNdMANjCCHcBAACQad57JUmiSqWis2fPylqrfD7fruaNokgTExOamJhQHMey1lKFBiDzOhc/u3btmhYXF9uve977dg/e9QS7qTQQrlQqKpfLhLsAsIUR7gIAACDzkiTR9PS0Xn31Vf3lL39REASy1rareufn53Xx4kU552St3ezhAsBt6wxcoyhSHMd35LEBAFsb4S4AAAAyzzmnxcVFnT59es0qNedcu3UDVbsAutXK175bDWlpXwMA2UG4CwAAgK7gnLupQILAAkA3StsxAADuLYS7AAAA6Ao3sxo8wQcAAAC6CeEuAAAAukK6uBABLgAAAO4VhLsAAABYl43q6XgnbKWxAAAAAHcaSwUDAAAAAAAAQAZRuQsAAIB1oToWAAAA2Bqo3AUAAAAAAACADKJyFwAAAF1nZV/gTlQeAwAAoFtQuQsAAIBMM8YsC3NvFOzezHYAAAAgK6jcBQAAQKatrMRdeT0Nc6nYBQAAQLch3AUAAEDXCIJA1i6dnGaMaV+P41hxHG/W0AAAAIANR7gLAACAzFmrtUIQBBoaGtLg4OCygNdaqyiKNDc3p5mZGTnn7uZQAQAAgDuGcBcAAACZs7LFQhAEGhsb04svvqivf/3r6unpUS6Xk3NOURTp0qVLeuutt/TGG2+oWq3SogEAAABdgXAXAAAAmZdW7X7ta1/TSy+9pL6+vna4mySJ3n//fU1MTCgMQxljCHcBAADQFQh3AQAAkGnGGBljlMvlNDg4qOHhYfX29i6r3C0WizLGKIoigl0AAAB0DcJdAAAAZJa1tt1/13sv73077F35lW4j3AUAAEC3INwFAABAZq0MatPraeC7VrgLAAAAdAvCXQAAAGTWWmHujfYDAAAAuond7AEAAAAAdxrhLgAAALoRlbttpvUlSX7FdwAAAGTJykretDUDAAAA0E2o3G0za1zmDQAAAEDWEfACAACgW1G5e13LA96l9wFeaUUvZ/cBAABsPUEQfGUP3vWEvLR0AAAAwFZFuCtp7Qpdo+VtGVZebwa+zPUBAAC2rpXBbHr9ZgJbYwzBLgAAALY02jKs2Wt35eXrvwHgzD4AAICtxTknaX3VuWsh2AUAAMBWd0cqd9OJ9FaeEDcrMTpvWWq3cD3N/bfuMQEAAGBrz0EBAACAjXRHwt2bnVCvVU1xNybja1dxeBlj5b1rbTetRTck55rBL28UAAAAtj7vffsrvd75HQAAAOgWd7XnrrVWYZhTEFgVCgWFYfPHO+cURZHq9bqiKJL3/o73OOt8bGOMCoWiSqWSgsBKav7sOI4VRZGSJFEcx3IuoccuAABABqwV7Hrv2y0bAAAAgG5wR8NdY4yCIFA+X1BPT0n9ff0aGh5WT0+PxsZGlc/nZYxRHMeam5vThQsXdP78eVUqlTs5rGXBbhiGGhoa1KFDh7Rt25h6ekqSkaJGQ4uLi5qbm1e1WtP8/Lymp2fUaDQURZGc93RoAAAA2KJWVu6urOYFAAAAusGGh7tpL1trrYqFgoZHRrRv314dPHhI++/fr527dmp0dFSDg4MqFJbC3ZmZGb377rt6+eWXdfr0aTUajY0e2irWWg0ODeiFF57Xd7/79xrbNqqeUlHGGsVxpEq5orm5ec3OzunLy5N698QJffnlZV2evKzyYkVJ4uQcbxIAAAA208rQ9npVu957JUmyKWMEAAAA7oQNDXebPWoDWRMol89r//4DeuYbx/X000/r8OFDGhkZURiGstZoYWFBYRi0w93+/n4NDAzIWquFhQWdO3duw0+bW9nqoVAo6OCBA3rpxy/pyJHDyudDxXGsIDAy8oqTRM41e/EaGT3zzHF98P77evOtt3Tmo7Oanp5VoxEpSVzrDQOn+QEAANxtnXO8JEkURZEajYastZKkKIoURZHiOCbcBQAAQFfZ4MpdI6NApdKQjh17Qi+99H/p2LFHNDjUJ2ulJImVJLEkKQhsu4IinXj39vZq3759GhoaUhAEGx7uppP+Zght1NPTo/v3H9C+fffJO696rSHJK4m9ZLya6641F1WzRtp//z7t27tHx44d1Suv/FZ/+MNr+vzzC0qSqH389GoAAAC4u9I5XrVa1cmTJ+WcW7aAbrVa1dmzZ/Xhhx8umw+u9RgAAADAZjHGyFq7rrXINrwtQxCGOvrY4/rhf/iRHnvsMY2MDCkMvZyL5LzrOG3OrLpvoVDQ8PCw+vv7N3pYy6QLtuXzOQ30DygXpk9Dc5EN552M8bJGMta2x2qMkbFG27dv13PPPadGI1bU+JMuT15VrVZVcyG2RAS8AAAAd1ccx5qcnNS///u/6/XXX1/WqiGOY83Pz2tmZmZVywYAAABgK7jV+emGhbvGGIVhqD27d+u73/uOjh57VEPDA7KBl/NJ88slWgp1Vwe8cRyrWq2qXq9v1LC+cszOJXLOKZfLy6fjcV6Sl5eXvJNzRjJGXpL3UhgG2rV7l44fP66ZmQXNvvq66vVYkmsdl+MNAwAAwF2QVuA651SpVFSr1XT16tVVPXidc+2KXuZpAAAA2GrSeapz68sV7Ub98CAINTQ0pCeefFxHjz6soaFe5ULJ+1hJ0pBzsbx3ra+1B1ipVHTp0iVdvXq13Tph5SlzGzHW9DErlaouXLigK1euyBgpsKHCMFQQhrJBs3ewkZFzTkn7DYFkrFGhkNf+A/v1xBOPa+/evbKtXsPyzQXlAAAAcOelZ2QFQdBu9xXHcbvPbtprN50kE+wCAACgm9x2uGutlbWBcrmcxsbG9PTTT2l0tNmKwfuo2Y6hFexam/bZdQrDnIIgkLVWSZJoenpaH374of785z/rypUrd2XiXalU9Omn4/rd736viYnPtbCwqChykrcyCiVj5WUlb+Wd5FsVvdZKQWA0ONivI4cP6aGHH1SxVGwm7M363js+dgAAAKxGeAsAAIB7yYa0ZTBGyufz2rlzlw4fPqx8IZSxTj5tU2Aka2yrkiJRoxGpXK5oenpGi4uLmpub08WLF3X69Gl98MEHqlQqd3xi7r1v92Z7+eX/rYWFig4cOKDR0VH19/dpYKBP/f19KpUKCsNQSy0Xms0kjGn2F962fUxHjhzW22//WRcvlEWwCwAAcHekZ2OlFbnee0VR9BX3AgAAALrHbYe76US6r69X+/fv18jIsILAynsnqRWC2kCS1Igizc3N6fz58xofP6eJiQlNTk5qbm5Os7Ozmpuba0/InXO3O7Qbjjn9XqvV9PnnX2hublFDg8MaGh7R6OiI9u7ZrQMH92v//n3avXuHisV8swuvb0bW1kiSV6lU1O7dO7Vzxw6dP//FHRszAAAA1udG7b2o8AUAAEA3uO1wN11IbWBgUAcO7Fc+n1+xh5W8FMWRrl69pndPvKvXXntNH310RvPz88uaBCdJ0l7o4m4tdpFWeFy9OqWrV2dkzecKc4H6+nq1e9dOPf74Y3r+hW/pwQePKAytjDVy3knWyEoKw1DDw8PavXuXrDW6g5k0AAAAbtJXrdvAwmoAAADoBhtSuRuGoYaGBrVz506VSj2SvLyXvE8n1V6LC2W9f+oD/eIX/6pPPvlEcRwrDMP2Ahdbg5fzdTUaXtPTi5qevqJLX57XwuKc+vr+b+3bt1fWBs3OC942y5Jl1FPq0d69e9TTU9LCQsSCagAAAJtkPaEtAS8AAACybkPC3Xw+r+3bt2vbtjFZI7kVk2TvpQsXLur111/XF198oUajIUnt72s95p2aaK/9uF5SrGY33fR6M7utVMr66KPTeuedv2jHjp0KglDWhjLGystI8urp7dGePbs7qpZvd506FmUDAAC4FZ1zvRvNJwl2AQAA0A1uN4WUJAVBoGKxqEKhsJSPdqjV6pqcnNRnn32mcrm8ET9yg3k1F0xLWl+u/RXHkaanZ3Tu3DlVqzU1D9A2q5J9841B8/gLKhYLX3kK4M3ZiMcAAAC4t6Wtvtbivd+geRsAAACwcdY7R92QcDeXy6m/v1+9vb1rVEAYNRoNTU9Pa2ZmJlMVEt57JUmiSqWiCxcutnoES8bY1vbmfkFg1dPbq4GBga96xJv82iptKgAAALLlRoEuAAAAsJXdylz2ttsySM1FxXp6elQsFtcMb2u1mubm5lSpVDbix9016ZMZx7FmZ2dVrVbX3C8IApVKBfX0lG7iF7BWuM0bEAAAgI3ivZe1tt3qy9rmB/Od6zzczQV8AQAA0D0628mmOWDnnLIzG7zeXPNGZ5etd366YZW7pVJJSZKsub1Wq6lcLiuKokxWUzjnVKvVtLhYXvMUPmOMcrm8+vv7b+LYsnXs17PW7zGLv1sAAJBda01+0/mItbbdPisMQwVB0L6t8/4AAADArVprLvpVvmqf9c5RN6RyN5fLqVgsKkkSBUGwanuSJIqiaFkwmoXJdOcYkyRRtVqVc25VpYcxRmEYqre35yse8WaDz+ZCbVnS+ZxQBQMAAO42Y4zy+byGhoZUKpUUBEG7atcY0z6TrFwuX7cgAQAAAPgqaQbWGdJeL7C9G0WQGxLuWmuVy+UUhuF1F6foprBv7crdULlc7iZ/aWbNx5HSPr5p792tK/09dwa5K0vQl656LQ+2t/axAQCA7AmCQCMjI/r617+uBx54oN2KQWp+SH/lyhW99957Onv2rJxzLKgGAACAdduK88fbDnfTqtV8Pq9cLqc4jlftszL865agN31TYK1VPp9XoVC4Yf+25h9A8/TAnp6SwjBUHMdq1BuKk7jj1EKzrCfcVpUeq3OuFe4HiuNEiXPybun4Oyuc0+O7eenjdH4aInm/9Z8fAABw91hrNTY2pueee04vvfSSrLVyzilJEnnv9fHHHyuKIk1MTCiO40zMtQAAALC1WGtXtfraSGnOuB4bEu5aaxUEwZZMrzda843A8srazn5unWXZKytZm89VoO3bt+n48eMaGRnRhQvn9dFHH+nKlautUwQ7A9C7F4KvVVK+eh+1q3E7jzGXy2nnzl3as2eXZmZn9OWlSS0uLrSOo/MPcr3HdL2AHAAAYLn0Q/cdO3bo/vvvVz6fl9Scu9Xrdc3Pz2tgYKC90Fpq5dyiW4oQAAAAcGdstfnihoS7hUJBxWKxXbW71kGmp7/dyqpvW4JpBrrN8NxrdeuE5avkLb996bYwDPXCCy/oJz/5jxobG9X09LTefvttvfqHV3Xm7Ceam5u/bkB8J5VKJe3atUujo6PK5/NyzimKolZw3/mphFccJ60edoGq1brK5bL+449/rP/083/UK6+8ov/23/4/nTtXV5K4VhieHr+XMfaGVberj3vp+SPYBQAAa0nnDc45VatV1Wq19gJqaRFCGvKu1W83k3NTAAAA3HVJkiiOY8VxvKrK1nsv59ya65F16mx1ej3rWc9qQ3ruprp3Yuy1dqCbblv6ZVhjOgLM1c9HGAR64IEHNDoyqt7eHpVKBX372y9o1+6deu3VP+r119/S1NSUvL+7i5P19fXpZz/7mZ5//nkNDw+3/8iSJFE+n1OjUZfzSbOvsmsGu0ni9Mkn4/rd736v0bFR7d23V6Njo8rlwtYftG9V+hpZ2wyGl06BXOuYlkLctN0DAADAenS2g+r80DhdXC0NegEAAIBbkRYQSKuD2pVh71rWCnY7b/uq4HelDQl3OyfON/rhma3ava7V/WONMbLGyLf66y4dbzP0NdYol8spCIxknIz1Gh4Z0LGjj6hULKi/v09/+tMbunJlUtVqVc65Ox7wpkHqUusI275cKBS0d98e5UKry5OXVS4vtitenPcyxslaryCQSqWC8vmw4w+5s+9u+t2v2tbJ+3Qf02oDYTq2sfAJAAC4vs5gt1M6AU+rKdba50aPBwAAAEhqr+mQruuw1pwynXeunJuuzEU7uxzEcaxqtdquCF5PMcKGtGX4KtkPdU3Hd7PidrPmrp39adPrUvO5qNfrSlq/JOcSeZ+oWMrr8JED6unp0bZtY/r97/+g8fEJlctlJUlyx9s0VCoV/e53v9PHH3+sXC4n55zCMNTevXv0X/7L/6O9e/fo3RMn9Mc//VGzszNyiRTHiebm5zU3O6uHHn5A8s0/SucTORd39Nz1Ha0Y1qp+Vse2zstm2Sch2f87AgAAd4NzbtkH1957JUmiRqOhKIo2e3gAAADIoEajoYmJCb322mvq7+9fFcB2ZqSdAW9aRNm52K/UbPGQBrxxHOvSpUsaHx9Xo9FYV/61oW0ZpNWLiHUNnwa5nV9LVbmrQt6Vd/dexnglidP4pxM6evSoCoVQkpOXUxBY9ff16tDhAxodHdHg4KD++Mc/6cMPT+vatWtqNBp37tC8V61W06lTp3T69Ol2VUs+n9dDDz2kH/3oR9q7d7c+HR/X7377B128eElJ4uV8M6gdGRlq/iEmibx3CqxVb2+P+voGNDg4rEKhIO+dyuWypqauaX5+XkkSdfz8dGG+5oJzpVJJY2Nj6u/vbwfN5XJZ165d0+zsXOsP/449HQAAIONWrmDceWobLRkAAACwXs45LS4u6vXXX9f58+fb61WtVb2bBrrp5c6Cg879O4sYnXNaWFjQl19+qYWFhXWNbcPD3Vt1JytTV1bRbuAj66tC3Sbf7qEbx7H+8pcTOnjwkHK5xzU01Kdcvrngh5FRLhdo2/Ztev755zQ0NKxt27bpr3/9q86fv6BarXbH3pA451Sr1drXrbWthUdqci6RtYHiKFG12lC53Gj30zVWShIva6ycay6Ytn37Nu3YsVMPP/yI9u69T/19/TJWmpqa0vvvn2odzxeq1WqtP+rmz+vv79N99+3TY48d1ZEjRzQyOtL8jyVxmp6e1tmzZ3XixEl9/vnnqlTKVPECAIBVjDEKw3DZhDqdeFtrFYbhsooJAAAA4KukC/eePXtW586dW7OF6spigrX66kprFyKkZ5pFUaQ4jtc1ti0R7t75Cl8jYzr6v6b/Mq12Cb7jtus/xPqseqzmD0wSp4mJz/T7378mGxg99thD2rZ9WNbmmrXAPpGxUrFY1JNPPqnt23dodHRMb775hsbHJ1pVr6tXeb6z0mqX5pdR2lPXtZrkLv0h9vf16fjx4zp06LAeeeQx9fcPKJ8vqK+vR8YYnTlzRv/2b7/UL//tl/rs3GeKoljWGvX39+no0Uf1o5d+pOefe16lUo9q9bq88wrDnILA6lvfelYPPPBH/eIXv9CZM2dUr9d5YwYAANbU2eMsiiLV63VJUj6fb0+cAQAAgJuVBrDVanXDHnMj1tnagHDXrFqN+KvC2s6Bm+adWhfuUMjrvYxtBrkrh5Zedb6VU7YKY1c+rc1weOWtK3vEpo/l5dfoLZv+rqI41nunPlC1WtHCwry+9rUntXv3dpVKpWZ1SeIVhs3ndN++vfrBD76v7du36Q9/+L1OnfpA09PT1wl40zJv175+48T65lkbqLlAnFrH1jxm79MWCUZRFGv/gQPatn2Hktjp888/15dfXpZzTnv27NaTTz6pY8eOKZ/P6fyF85q6NqXZ2TkVi0UdPHhQ//iP/6if/sNPNTszq3fe+bNOnnxPc3PzGh4e1tFjR/W1p7+mH//4x6pWq7py5YquXLmy7k8zAABAd/PeK4oihWGoMAxljFEQBAqCYNmCagAAAMDtWqslw1ft35mddrZsuNnHWOkWw92l0NAYyZrmhPnGabNRc3Et1w4fw8AoFxg555s9XFvVrf62Asn0SW0+hjVSGEj50CgfGoWhURg0b/deSrzknVe94RU1vCLfCnoluaWjlPNBc/zeLPsZab/Y5nGv7MW7NKblv2yj8uKiTp06pStXvtTVq5P6u797UfsP3K9CvtmfttFoKAiab0hGRkb03HPPatu2Zh/at99+R9euTSmO447nO31+1fE9dfsBb/r7ldI/suXPkGSUC3M6eOCQzp49o3/+xf+vl1/+37p48ZK899q9e7e+973v6p/+6Z90+PARPfH4E3rv5HuanZ3TwMCgjh9/Rn//93+vxYUF/df/97/qlZdf0fnzl9RoNFQoFHT48GH9+Mc/1s9//nO99NJLev311zU7O0u4CwAAVlkZ4AZBoDBsTnvTuRNn/wAAAOBWrTfUXbnfRs5FbyHcTYPDZohpZBUEOYVhvl0RYeTbp/HHcaJaraZGoyFrjTqzuD27h/XQod26cH5Sn31+VbU4bV6QBrzLg9q1mFXXlu4TWKNczmv7iLR/X7+O7N+h3dsHNdCbUz5nFDunhcWq5uZr+vzcpC5eWtCFyUQzZamRNI/OKyevkhJXUrXq5JxVkrh2z9lmwOslWRWLpeZPbjVEXh68Lo3LmETOx3Kx18VLF/W//tevdfHSRX3n776t48e/rlKpqFwupziO233jSj1FPfLowxoZGdaRB47oN79+WZ988qnq9YacS2SMbf1u0uftRlXG69doREoS3xHsdn5JxljlcnnNzc3pF7/4H/rlL/9d58+fV5IkSpJE5fKiZmdn9MQTT+iHP/yhDh06pJGRYVlrtW/fPn3jb76hfKGgl3/za/2P//7fNTMz2z7+RqOhjz/+WL/61a908OBBfec739GTTz6pDz74QJVK5baOCwAA3BsIcwEAALBRNmpuuRGPs45wt7MatKNy11oF4VLlbrMidimY9fKK40RxnAaQzXYCgZUO3D+mZ7/5gK5e6tHrYV2fnptXJfKKpfap/s2vzgrRpTGkP8G0/700yjCUhgetjhwa1reeOagH9o9o17Ye9RelUDUZH8sEVvVoQLWqU/SN+zU11dDpT2f03keX9OlnM7oyE2uh3uwr6xOjej1qLYzWGSk3A87mgmD9q6pCpLQdRPNYmre79v2ck+bnF/TB+x9qcXFRlycv62+/+U3t3bdPYZiTbbWTcM4psEYjoyM6fvy4dmzfof/5P3+t999/X/PzC4qiqON57wzGO8d5K4xWhtNLbR+Wt54wxujs2Y914sQJXb58WY1Go11qbq1Vo9HQ+Pi4arWaevt6VSgWVSwWtWvXbh08cFCBtSpXFnXs8aOqVetKkmZo3lwQxWt0dFSJixWGge677z4Vi0UFQdBeJAUAAGAtzBMAAADQrW67526hUNDAwIB6e3uaIaY1csmy+FdJkrRaCKh1ixRaad/ufj14oKiH9m2XTa4qblQ0fj6Wc5KTlfGtVY5X/VTT+qe51aT9er1RYIzyOa/to3l97cnteuFbR/Tw4T71hBX15meUt7EC35B8LC8pKRq5klcoqwPbCzp034iOPtijk6cn9eeTk/povKL5ak0mqiuq1VuVya34tJV3eu8VBFYjI8MqlYqqVMryPlHn+4ilBcnS+ywF1nEcaW5uTh+f/UQL83Oaujatb3/7Re3fv199fT2to3Qy1qhYyGv3rp0aHh7WwEC/du3aqbfeekeXL0+qXm8oSZyWB7sb+WZmKcztHP/SMUlTU1Oan5/vCJvTbc0ed5VKRVEUtX5/VkEQqre3TwMDgxocHNSLL76gp59+UnHsJG9lTNoOwiufz2nbtlH19Zc0NDSgUqm0IY2nAQBAd1l+BtXa2wEAAIBucJPh7sqesUuLgxWLRQ0ODrYXA2v3jtBS7W4cx4qiRrvi0xhpsE+6b3e/xgYb6ssnSp4aVbVSVbV+WeevSC5uVrj6VRWoKStrmu0bvE+bOHiFgdeOsZKeeWqHvvP8Pj1yuKjBnnmZZFbWNxT6RIGS1mN7BZJM6JXzTjYsKB+UVCqUNDSwXX2lQHF0Xh+ORzKurmplUd45GWNbrSNaByqvILQaGRlSsZhXEKTtJzr78LYiaZMGw0uhpHPN6uZKpaovvrigSqWm6elpPfvst/TYY49qZGRY+UJO1lolJmkuChIGeuCBIyoUiuofGNBf/vxXTUyc09zc/LKWERsZ7jZ/v+2D7tzSvlQulxVFkay17arapfs2VxVsbrPNDwNkms9n6++rWq1qcnJSSZxW7YYdTaa9Lk9e0okTJ3T69Ift1QkJeAEAwPWsnCN8VfALAAAAZMktL6iWrjw8PDyiHTu2q1QqtYM8a017H++9KpWKKpVqOxgMrLRzW177dhbVX6iov7CoI/flFD+zTY2ortfentHFyeYCa05WTkau3Ye3GfcaY6VWyOp80gxqjdfwYF7HHtmu576xX0cfKGioZ05K5mRUlU8ieXk5NVstGGNkrFEgJ+sTyUeyrqbefKz7do+oFg3p08+ndfbctOKkqrm5GcVJ0rxfurCaaQaeYWg1Ojai7Tu2aWr6qhoNdVTu+vb3NbNReTmXSPJK4lhffnlZMzNzmp2b09WrU3rqqSe0b98eFUsFSUuLhBQKeR06fEClUkHbt43prbfe0fvvf6CpqWlFUbxmde3tW95rd9mWVnVu2oqhcwG2ztYJ6TZjjOLEqby4qPn5edVqIzp75qx+8a//qnK5Kvmg1QLDKAiMAmvkjVOtWtX8/KLm5+faP4s3aQAA3NvSuakxRrlcrtXWaYm1tn2bc475AwAAALrCLbdlCIJQxUJBO3fu1J49e1QoFFpJm62BAAAgAElEQVRBWzPUNEYKrFWSJFpYWNDCwqLSJcrygdF9ewa1YzingllUzi9osEd66GBB3u2Wi43+9Pa0ZhalWuQVOdvZEEA+rSTuWETMmkSlonTowLC+8fRePXKkVwOFKeU0Ledqkk+UtFoxOJ9W0rbu7a2c95KXrEkU2ppMUNXQgDQyHMoYrziua3rqqqq1qpwbWIo2jWlFz0aDgwN6+OEHdf78Z6pWa63HbPaodc60eg5LS8HoUvOKZlVrs6WCixI1Ggt698RJzc7MaWpqSl//+tM6dOiABgcHZIO0Atgrnw+0d99uDQz2a3hkSINDA3r3xLu6cOGiGo2GnLu7b1rCsFlp65xbtlJ1Z7Dr/VLQG8eRJievaHx8XPfv36Oenl5dvPilxsc/U63akEuaxxmGoQb6+9Q/0KO5uTmVy5VWqw+qbwAAwNKKxbVaTZVKc56QiqKofXbR8nURrneGWBNzDAAAAGx1txjuellrNDA4qPvvv1+7d+9SGNpWiOnlnVNgvUwQqNGoa35+XpVKWVIz9C3kjfbvHdFAr2RVk4+rstZrsFTSwwd7Fdp9Mr6hEx+VdemqV6WWyCfNyXcaFzrvJFmltxZCr13b8nrisTEdfXhQw31lmWRKLllonvrfXgTNLDXLNaZZXWuMvLHNql7v5H0k+YpCa1QsOIVWcg2nq9cmVV5cUJyMKghaD5MuIOe9CoWcnnzicZ167z0tLCyqUqnJJa1nrL0I2fUWPEu3LVU91+sNffrpuGZmZjU5Oalnn/2mjh57TKMjQwrCQN4lSpJmv9/BgX498cQxjQwPa3hoQH/84+s6f/686vWG4ji5o29O1npjtNbPS4PY1tOltB/zxUsX9Je//FVPPPGYnnzyKf3gBz/Qb3/7e53/4qIa9VjWBhoYGNChQwd08PB+fXz2jN56623FMadWAgCApRZN8/PzOnPmjH7729+2F7mVmuHu+Pi4Ll68qCRJNnGkAAAAwMa6yXB3ZYDmFIaBDh06pMcfP6bdu3fJWivnmq0AvHOStfLOqVJunj5fay1GFhijYs5oz85BFXORwsDLGiOjRNbV1VdwenB/TqUf7FdQmtC7H9Z08UunxbJXPUkbAjjJt5oceCk0TkN9Ro8+OKYnHhnRrrG6Al2VkrJkYhkTyvilVgC+s3DWSN54Ja1euIkkmealfBhqoDenYl5aqHtNTV1VuVyWd042DFv7eflWXpzP5fTQQw/rsaOP6drUNTUaVxX5RN619lsq913xtXS7Ma2l4lqLxMVxosnJSb3xxqKuTV3V9PSUvvnNb2jbtm3KF9J+tM32EsVioV3dOzIyot+8/LK+vHRZMzMzajTidYWgN7vvjSpe1upx1/k9XSjtypVJvfHGG3rwwUP6/ve/q//8n3+uvXv26NSpDzU9NatCsaQDB/br2LGjGts2rN/85td6992TqtVqN308AACgexnT/MB4cnJSv/rVr/Tqq68u2xbHscrlsubm5pS0Wmzx4TAAAAC6wToqd9PGCEaBDbRnz1594xvP6MEHH1ShUJAxrrW4mZOxrXpal2h+fk6Li4tKXNzsoGu9enqMRoZCFYJIVkkzDJaTUaTQxOovRXrwYL/C3sPaNvaZ3ny7rM++cJpe9KrGrQBWTtY4GUkDRaPDe3v0N0/u0YP7e1S0U7LxvAITyzbb4jZbRkjNRdharSOaAWqzzYOsaVYdt4/V/R/23rM7ruve03z2PqdyFQo5kcjMYM5UtmzJkn2vfJfttdpzb/d0r+615vXMmvkA8xF61rybmZ550dfTfce+Dm1LtiVRwZZIMYIAQYIEARA5Z1Q+Yc+LcyoABJWcdO39aGkJKFSdsE9RRD31q9+fgCmIRYKEAyCFIpfJsLiwQFd3J8FQHCm9tC+Oty3DNEgkEjz37HPMTM+SSmXZ3NjC2dZPK3Z87R1IUdJK6Q2K85LJ3lo7rkUqlWLw7iAry0usrC7z+uuv09raQjAY8pOw/rAyQ7K3bS+v1VTT0dHBL37xC/r7B1leXqZQsD7XC5lKYeu6LpZl+RUP7q6PL76gKhQKn1mV4LqKfL6AZXlX0TBMbMtheHiY//yf/xHHcXn11a/z3e9+j9de+zaFvIU0TAIBk3Q6RV/fTa5fv0Emk/mTV05oNBqNRqP5alKsg7Jtm4mJidLt5aGs5d9tlFIEg0EKhcKf/Dg1Go1Go9FoNJo/NAbwvxa/EUKUBk0EAgEMwwAoDa0yzQBKweEjR/jud7/LxYsXqKurQ0r8HlWvekBIiRCSTDbDrb4+Pr5ylanpaVAuoZDgyP4w33xhH3WJAgGZQZFH4IA/Qk0IhRAOiajB3uZq9jbFScQclGNhWQrluWBMoLEKTvc287ev9HL2aB2NVXmiMo0p8yhle+pWeIO5lFKe6RWK4j9QoVi9IluEMBAygKvCrK5J7j1cZnkNMpZDTX0jbW17SSar/CoKf1iYC8r15HZtXS119fU4jmJzM0Oh4CIIoJT0l7zYFbwbyj9m76gctzwYTSmXbDbL9NQU4+MTxONVxGNVhMMRpCH8QXaglINhmCSrk3R370NIydraOqlUCvB6cT9N8hYHjiilkFJi2zZzc3Ncv36d0dFRstls6b7F4SWRSIStrS0++eQTHj58yObmZikZU8Q0TWKxBEtLSwwODjI4eJ+1tTUQAtd1/ATvVfr77zI9PcP8/AKzs3M8Ghnho48+4kc/+hE//vE/Mz4+wdbWVul5qdFoNBqNRvNplKuhvN9/dDWDRqPRaDQajeYvhfJELygJvUoMwyAUChEOh2lpaeHIkV7OnzvPgYMHqamuxgwYfoXt9lSnaZpMTU/x4x//mHcvv8/iwhKgSMQkL1+I8T/9u0s0JTYJmikgDTgIv/5BSgMpDQQGBTvIVibE0nqAiTmX0aksMwtpMlmbSDjMnsYkR3rq6W6T1CYyRINbBEUalwy2W/AFrolyvWFuUopyTy7e2QspSovg3W6iZIhsIUb/fZv/9MMH9D90SLmS3pNn+Id//Q+cPHmMWCzsiWLl+tULIA1BoWCRyWSZnprlTt8gd+4MMjExxfrGBpZl4dg2oLAdyxe3RUFZWVfgfa+UQzk1DVIKDEMSi8Xo6Ojmm9/8JhcunKOhoQ4zIH0x7g9vUwLLdlhZXuXKlU947733ePDgQUnyls93lyeGfwymaVJdXY1hGKTTaTKZTOkFUfHNACkliUSCmpoaNjc32dzcpFAo7Ni2J4ET8QSJRALbsdnY2CCbzZdEdvEcI5EokUiYSCRKwAzgKkWhkPf3n8Z1Hf2iTKPRaDQajUaj0Wg0Go1G81fPtlqGYqJBCEE4HKa6upqmpiY6Ojro6Oigvb2DpqZm6uvricfjBIMBRFFuUu6KVa4inU4z/HCY0dExNjc3AZACImGD5sZaYmEDQzigvOoETzMrhFBIXAzlIrExDIdATBELCeqSIQ50RslZzVi2JzqjIUEyahMLpQjILUxyKGX5qV2vfkF4xQs+/lfbnGbZcQvhi16lkAKCQYNoJIggi61cJiYmuX27j7q6Gjq72ggGPbld9LHFtGs8FqOzs4Pa2gYOH+nl8dg4M7OzLC4usrK8zMzMDFtbG1iWjbujxqA8fE1RKT3BqzVQymFzM8XDh8Nk0lkWFha5ePEcnZ1txOIRTNPEMDzxGgwaNDU1ceHCeUzT6+jt7++nUCggpXyqJC2eB8Dq6uqu9yt2GNu2J2o3NzefSMZUbBHXddjY3GArteV/7/r3LT0BAEEmkyGdTiPlqiep2Zm40XUMGo1Go9FoNBqNRqPRaDQajQlPDsWqra3lzJkznDhxgra2Nurr60kmk363rkHANDEMSaUQLXbGAliOzfjEJNeuX2dqahrbdkEIpKGIhiX1dVWY0sUQtl/H4KVqvW2BUOWBaQIXU7hI0yIYC1MTD+OKELYjARdJnoBRICCzCJUF15O6nisUIKQnnfF7dhGf4QaFrxldpHQJh0zisSBCZpEupFIp+vru0NhYT1VVjJaWRu/c/f5ewF8bQTQaIRKJUlNTQ1vbHlKpFKmtLZaWl3j06BF9fX1MTEyR2kpjO5VCF8B94siKx+d17EIul2d8YhLHcdnY2OD8+dMcOXKQuro6TEMgpYFtuxiGQWNjE+fPnyOVSrG8vMzjx4+fvgKiuF6q1GG3289KlRT+fz9rOElRzDpO5blVaHchd/T9KsDecZ/tz1U9DEWj0Wg0Go1Go9FoNBqNRvPXyhMD1YLBIKdOneL111/n6NGjJBIJDMNAKYVt297QLiEAF9ellFpVyhOcuVyO8fEJPvjwt/T19bOysobrKoSUmKZLIm7QWFeNFDYCG4Hrid2SpBPgJ4GVKqaBHYRwMYSDIQq4mBhCemlZlcMQDhILpSw8OWp4lQF+ClcoX5mqsjot7e0J16t8MewihEMgaBCKePuSgG07TE/PcOPGTeKJKIZxivqG2lKPbWlbSpWkdygUIByuoaGhBtd1yOXa6e5uJxoLkc/nGMtkEE5JlZfXAVXxffHrypQrKBdmZufI5rJsbq6zubnBqdOn2Lt3r78OxesaoLGxid7eXu7fv8/ExMQ2absblfLWW6snxer2xPHnEa07O3J3DjrZ1hTiU6yuENseg99NrAWvRqPRaDQajUaj0Wg0Go3mrxETygPTABKJBCdPnuTgwYMkk0mAbR2rpmkARannCV5XKSzLZmNzk9HRUa5dv861Tz5hbmaeQqHgDVgzIGBAImpQX1uFFClf7jqIUkpVIJQvVxH+4Xki2Uv3Ol5dALbfyQsKC1wbp5QAliCklxT288CqWG1Q2q4q7m6bPi3hDzATwsYwDEzTe6yrwFUu6XSWBw+GAUUqtcWJ48fYu3cPwVDAW58KTy1wy+JSKKRUxBNRgqEWTpw4xvDDh0xPz2JZRbu7m8Asfr/Lv8Lr+F1cXCKXy5BKbeG6LvFYnJqaWgzDLF07wzBoaGigpaUF0zTJ5/O7PimeJmw/S6J+Mclamcb1zrN4vpW3l9LWiG3CvnJfWvBqNBqNRqPRaDR/XCo/wafRaDQajearQym5W/xLOpFIUF9fTzgcLn3Uvsi25GbJPSryuRyz8wsMDNzlypUrDD14wMbaGo5dHgYmlMCUgmjYoCoRRop1hCjKXbVNiFJsORB+ctcXsspP+SrlgnJQKJSyKcrf4uP9Xzt2HOjO77x9KvHkfTwZ7AA2hjQJGApZsRfHcVhf32Rg4C5LS/NMT09x8eJ5uru7aaivL9cLlE7Ll8tKgVCYholrGDQ21NPQ0EAkEiadzuFlg4v3r0jnKu/78vL7A9MQJfGulEuhUGBzc4PFpSXS6TTV1TV+Otfr3y0OQDMMo9Sn+4fi8/+St/3cvMcWv/JuLx/b9vsJIRHSewPA2bE7LXg1Go1Go9FoNJo/Hvp3bY1Go9Fovppsq2Xwkrkm4XAYKeWuH8cv3+bfIAW5XJbHY2Ncv36dhw8fsr66jBLS70NQKNdL+koliAYDJOMRb5iaL2uF365b7N5VrosSlbcXhWtldYHYVeL6ra6gilv247muQiiFFN493OLjVMW5UFSPRZHsYEiXcNig6BsFBiBRriKXyzE/P4/r2ggUsWiMutp6TNMTr+V184W0P3ZOGiaGqQiFwwQCAa++oSKxq3ZIzfI2oCh5ve15jzEMg2g0SkdHGxcunOXZ556hubnJv5+3HcdxEEKwtrbG8vLyUwep/THYXbw+kZcu8bRfHL0aiKf//K+xj3e3P5ufdr8/9Zp81Y9Po9FoNH956Dd8NRqNRqPRaDR/TWyTu6ZpYlkWmUymJAMrKQpKpVxPr0qBIQ1qaqo52nsEVynC4RDXrn9COpPBLvW1uiVXaZoWoYADvtzdqW1LKVdBKXVKxU+KXwnp9+nu7KAVFVspClAlPGUqytuvPLNKlVpquvVLeg0J4ZCBISEgwMbwaiakSyhosGdPC+fPn+PZZ56hu6cbwzC8oxKGv36q4pwkSnlrYkgDq2Bh27a3XylKBy+QJZH5pOTddkUAiMWiHD58mJdffpHz509TW1dLMBj0pXr5RY5t28zMzDAxMVHa75+eyu5c/5anpMOffGH26XL3ix/HF2H3JPj2n/252O3NgIqfCvGZ9/mqoF+QazQajUaj0Wg0Go1Go9F8frbJXcuySKVSLC4ukslkiMVifjUDmKZBoWAj5fZBX47rIISkubmZuvoGjh87xr593bz99jtMT8+Qy2ZR/uCucMigqTGEYaQQwqYkditSqEq5no8tyc1KytUEyt2uhHdLupaGdZX6dssqubihsvLaKRgFQhmYZoBEVRwhlkp7kEKQSFRx6vQxvvGNlzhx4jiJRJxwOEy+YPmD1Pz9FQVt6TZBNpPBVbC0tMTi4iLZbAYhiuKyQojvek7ez5RyMYwAdbV1nDt/nle+8Q2OHe8lEglSKORxbAczEMCxXQKBAKlUitu3b/P+++8zMTHxJQRaURCWh7CVO3E/x6O3JTNVhXCk4vvt29wtzVn82hP3X5Zih6+s2FZZ3pZvrxDzfmVGuf+44tpuG3r3tFRxZdVE8Vx2u8ZfrC5je6VF8Ri27RkhjIr97bzPp+3v6edT2vqON4Cedp9ir/duz7vi4MGdnxTQklej0Wg0X4advfy7/cwwjD/pp5g0Go1Go9FoNJo/FubOG9bX17l27Rp79+4lGo0Si0WRUmLbDoGAiesLIlH8R4DrNzCEggGamhr42ksvIYTgN795m4nH495QNQEBE0JBFyEKCH8AWtl17SJ9KtKsn01FZHf7LZ+LouAV/iF5Xs8b4BUMSAzDu900JLF4jAvnz/GNb7zEkd6DJBIxpJRYlkVR9hV7bR3HxnG88l0viazI5QusrCxz/cYNJiYmKRSsClG4U6jtXBcXkAQDIfa2tfHqq69w4fwFWltbCQYDgCAQCPrDxyQOLuvr61y/fp23336bgYEBUqnUlxBnRYlZ2QX8OR/5KTULZVlalvl/Kqfn7V9SXnOBJzuLwrP4om+3n+92jT4rHbvzGfm0FPAXTRXvtr3y9SoPTNy53c9a6D9c2vezBK9Go9FoNH9MpJSlTn/btrXY1Wg0Go1Go9H8xfCE3HVdl6GhIX7yk58wPDxMZ2cnjY0N1NbWkkjEMUwDKQThcAjDMDyF5Li4fsrRkJLGpkaee/451jc2yOWyzM7MIh2HgCGJhoIYwi0bvG0u6/PIrz825USvAAwhCQWCGAIMAdIMsG/fPp555hl6j/aSTMaoTLNKIZCG3JYUKRQstra22NhYZ219lampScZGx7h37z4LCwvYto3rKlSxluFTBJhhGCTiVXR37+PVb36DkydP0tTYRCgUwjClJ9v9pHQ6nWFjY4Pf/e4jfvvb3zIyMsLm5uaXekETDIYIBIJIKcnlsl7PsBA4roNyv1iKt0yxNoLSuT+tdqEyzVlMen7m1j+z41UQDAYB77wE3gs/aUgvo6zcUro2m80CIIXEVeC6xXT1TqSfwt6eQq089vJxVYr83cTsZ57hjv/utp1iCn63dPFnVUx89gXdeZ67XZedYvezrp2WvxqNRqP5ohT/bgkGg9TX1xOPx5+ofcrn86yvr7O+vg7ov280Go1Go9FoNH8ZPDFQDWBra4uBgQEmJiaoqamhtraWhoZ6Ghsb6dnXQ1NjI3v2tBKLRUvCpviRb4UgYJrs2bOH8+fPMjczzcbaOrnUFqYhCQYDyFIi0P93Wzp3t4Thn5qyqZRSEjBNpPCOqiqZ4MyZMxw6fIhkMomUbimRq4rj2JSL6zo4jmJhYZ4HDx4wMjLC/MI862trrKwss7GxzsZminyugOu628To9hSvf0TCE5F1dfUcPXqUF198kWPHjpJMJj2xaxgV4tAlm80xNjbGlStXuH79OpOTk6TT6S8ldqWUNDU1k0wmiYTDFKwChUKOVGqTxcUl8nnrc4vd4nOscmDf9pqD3dkpBcuJ2ye37T0fP/2AlFJIKaipqSZZVU00GvX24V9vhcJ1Hb+WRLGxscHm5ga5XAGrYGNZtjcOcBeJW+kuy8dUTCdXXtdPO8addQ9Pu88XvW3n10/K4C/DZ8ldePIa7oZ+oa3RaDSaL4qU3pvqUkrq6+t56aWXOHPmjD8HwUMpxfT0NB999BF37twhn8//GY9Yo9FoNBqNRqP5w/FEche8X4DT6TTpdJq5uTkCgQCRSIREIsHevXvp6urk+PETHDp0gLq6Wv+X56LkkggpCRqSnp5uDhw8wNjoGAvZNKYhCYeCSMNA/LnmeX0uROm/UghMw0D6N3V0tHP06GEaG+r8/uEKoVVqhnDZ3NhibGycW7du09/fz/T0NFtbWxQKBX+YmfLTupVSs/hFuRu1uI9INEJ7eztnTp/h3Lnz9Pb2EolEkFKUXtS4rotlWaysrDA0NMS1a9e4fv06y8vLpY8gflF5JqWkqqqK119/jQMHDpRqOjKZFHfu9PHOO+8wO7vw2Su6S6fqk+wcIrc9cfNkCnY36StKyeWn4wlWKQ3Onj3F88+/QG1NbalyRErpiV3l4n+Ck7W1VeZm55iZmWN09DET41Ok0mkcx9q2rkI82RlbPr6da7BbQnt3qSuE3HZu3nru7Are3mv8xcTt9moJb709gf55ZHlpKxXJ6uLjdluPnbd5a+760l0+9bEajUaj0TyN4u8sp0+f5o033iAYDJZ+R7Isi4GBASYnJ7l7966uCdJoNBqNRqPR/MXwVLlb+XWhUKBQKLCxscHMzAyPHo0yOTnD+voGZ86coqmpEdP0BK8ntxSuUiSrqujs6KCpsZHVhTlMU3ofg99e3foVpNjASykJIiWEQgaHDu2jpaWJYChAcehZsTdWSk++ZbNZBgfv8sEHv6Wvr5/5+QUKhYK3zW0vJp7Wg1peGNOUxONxuru7uXjxIhcvXqKjo4NQKFQSoUq52LZLPp9jfn6B/v5+PvzwQ+7du8fGxsaX6jotSrVAwKuh+P73v8vRo8cIh0OYpkk2m6GlpYXHj8dZWlrBtu0nkreVkm+n8Nt+LOX6gPIT49P6YRVFEbzbOX2ehCiAYUiOHu3le9/7OxoaG7w9Cq/n2XUdFA6mEUBhk0qlWFtbY252nus3bvPe5Q+5c6eftbW10rE9TUSWRey2W7018YftFXftODZSGv5gPbd0Xy8TLzCkUQqW775NrxaivD6777d8nF7v8JNS3evUpqLm49MoD7pTGIYEyiLaexPDfcq6PL2C49Puo9FoNBpNEe9TNt7fb4ZhkEwmaWxsJBTyfmfxKqVy1NbWEolEAP2moUaj0Wg0Go3mL4dd5e7ueMLFdRUrKyv03xmgkLcIBUMkElVUVcX9n7ueFALMQIDm5mYaGxsZCwYwTYFhGr442y4xvzrslqRUCCmoronQ3d1BPBEFirKqmKTET87ajI6McvnyZW7euMXKyhq27VA53Gq71JXb9lUUjMVEbn19HYcOHeSZZ57h7NlzNDc3+7JZoFA4toPrQiaTZXJyitu3b3PlyhXu379PPp/fJt0+L0WhrZQiHo9z4cIFjh7tpaGhvlT/EI1GOXz4CKdPn2Zw8B7r6+tPSOvScapiotVbI8cpJzR3plErH+89rpxi9V64lc/FdcvSeKdY/bznawYMQqEA4XDQS0krsB0Xq+CWUtWmKamvr6W+vo59Pfvp6uohHkuwsbHB2to6RbEvpYH3vHArhGixhsIo1Xd4vbzeMUvD67AWxWRRAQwzgGUVnqypEGBIAyGFX69RTrh66+d1Mgu/IkQphesWBW8xiStKtRGO4yClQAhjm3wtraX/fCx+rHXnmz7l+xefw5VJY/w3O8qH713v8h2EL5pd1/XT7OVtCyEQ0hfMFSL/84hmjUaj0Wg0Go1Go9FoNJq/Fj6n3C1LN0/kuOQLBUZGRrk7eJ99+/dRVVXlJ3ZdlKt8ySRIJqtpaGggGo2CyCKl8AZ/Ff5Yp/Rl2VEFICr7EhSGhGQyQWNjA5FwyJeW2xOnrnLZ3Nzkgw8+5Pat2ywvL+M43s8EEpCoUuWC95F3UUxIAuD1uwopicbC1NbWcO78OZ5/7nl6e4+QTFb7ctSTcradx3Fc0qksIyOjfPjhb/nkk2ssLi6Sy+W+9EpUdtc1Njbyta+9RCKRQCnHF64GhmGyZ89ezpw5x7vvXiaVSlEoWKU19B5vEo/HSCTiBAImrnIp5HNsbm0ikFRVJQkGg9i2jWUVyOVzFPIFcrl8SeyapkkoFCIejxONRHBcB8ex2draxLZtotEokUiEQMDEtr2EbSaTJZ8vVPQLV0bF/eshvMS1ISVSGiXZurW1yeTUFHNzM6V1rq+vp6d7H/F4FNMM0d7ewbPPPsu9ew8YGhomk0lTU11NPBEjEDCwbYtsNlMawhaLxYnHq1heXiGVSoNykYaXYg+Hw4TDYUKhsJdSdRW5nLdG2WwW27YxDINYLEZNTU1pbW3bYn1tg0w2i+s6CCEIhcIkk1VEIiEcx0Ypb1tbWylsW2EYJgKXQNAkkYgDgkAghGXZpLa2yOayKKUIBgJEohH/2EKlRHo+nyObzZHL5Ur1IkopTDNILBolHA4iDIEhvbXOZnNkMnmi0SjhcBjHsTEDBoZhIP20cC6XY21tDdu2SjLdMAyi0SiJRJxQOIjA+zjt+voGm5tbOm2l0Wg0mt8b/XeJRqPRaDQajeYvhc+d3C2m/rwe2gCW5bCxscnoyAiPx8bp6elGConj2NiOiwx7ab9QOEQikSAUDuOqDAqFacivaC3DLoOn/JoJaQqqqqpIJOIYplFKIBaHySkEhYLF/fv3uX3rNquraziOl0+WQiKQKCWK2VyKYreI9DtYkQLTlDQ3t/Dqq6/w7LPP0Nra6ssxLxFqGAaWZWFZNul0mruD9/jNr9/m1q3brK9v/N6r4ElNSXV1Nb29vZw9exbTNPwhY15aWQhFNBqmp6eLY8eOMTIysmMrkurqGi6cP8dzzz9LMsGT92AAACAASURBVFlFIGgwMf6Y3330EY2NTZw+dYbW1lYcx2V5eYn+gTvcv3+fe4P3sW0HKT0ReOzYMV555Rt0dnbiOA65XIZf/vIXCCE4duwY+/fvJxqNsLKywvCjR9y5c4fRkVEWFpYqkp6VYldQmU6WhpdmtSyLkZER/vmff8xvfvMbcvkcoVCQtr1t/Nt/92955plnqKurRwiT6upqujq7iMcSuA5cunSJr738ItFYBKUcZqan6e8fYCuV4tzZC3R2dvLTn/6cmzdvks1mqKpK0N7ezoEDBzhw4CA9PT1IaWDbNqOjowwODjI4OMjs7CzhcJgzZ87w+uuvE4/HcB2XsceP+eUv32J0dIx8Po9hGLS2tvLKK9/g7NnTKGWTy+W4ceMmv/vdVaamZnFsRSweo6urnb/5m2/T3d2DFAbT01O8e/ld7ty5g23b7Nmzl1OnTrBv3z6OHDlMOBwmm00zNeUlw/v7+5mfnyeTyWDbDpFIlIuXnuG55y5RV1eDwmF2doYb12+xtrrBs889x8GDBxgaGiIajdLQUE80GvXP9TG/+c2vmZycJJPx3vwJBkOcOXOGF154nr1te7Atm6WlJd566y2uX7/5pYYCajQajUaj0Wg0Go1Go9H8JfK55W7lR+5t1wEUjlLMzc8zMTlBPp8nWZXAsgqEgkGk35UZDoapqqoiHIniOqveR9ZRyK+c2C13xAq/EqASKQUNDXUkq6swDaNiaJXy6wYUqa0Un1y7xvziAgXLppz7pdSDinLwqhwkirIwd1EYUhKLxzh85CDf+953OdJ7hJrqagzD+0h/MaHpKoVtu8zMzPP+++9z5coVxscnSKcz287l87JbesUwDJqbmzl37hwNDQ0EgyFy+Syjow+Ix+M0NzURCoXo7GzjwsWzvPPOr8nnC9u2FQoGOXT4MD/4wQ9oaqpHKYfx8XHOnDlDe3sne/fuJRqNIg0D5dqsrq5y5eon/N//6f/hxo1bbG2lEELS1dXFa6+9xqlTJ7Esi1wuR0tLCx0d7bS27iGZTGKaBo5js7m1xd2Bu/zoRz/i5z//OSsrq55krzguISSBgEk4HCEUCnvXQnn56mw2x8zMLI8ejZHNFjBMuH9/hOMnTnLm9BkCZhAhTFzXZXNri0wmQzAUpPfoUb7zne/Q0FCL69o8fPiQQ4cOUl1dw4kTp3FdweOxKe4NDhEOh3nxxed5442/4fz5czQ1NREORwCJbTtYhQKzc7NcvnyZn/70pwwPDxMOh7hw4RynTp0CYHp6hpmZOebnF8nn84RDYQ4dPMjf//1/x+nTx1HKwXVdurt7WFpaY35+hVzWIhSMc+7sJf7Df/gfaGmpJ5ez+PDDD/n444+pSlRx9uxZ/tUPfsD58+cIhUIkEnGCwQBCQC6XZXpmmo9+9zt+8pOf8MGHH2JZLoWCxbFjx/ne975HR8depBSMjIzQ3t5BIl7D88+/QDgc4oc//EeklLzwwgvs378f13W5OzDI9NQsj4bHcF23NOn8lVde4fvf/y4tLc2kMxmuXvmEn/zkZ5/7Oa3RaDQajUaj0Wg0Go1G89fAF+jc3YknJbPZHCvLq6yvbRCLRpCGAXgfL1coAmaAaDRGOBKmkPIepr6SvZmVQ7zUjv96ydpYLF4x0Ko8tMrrh3VZW19ndnaOXEXXbbE71i3dVxEIBLBtx+9C9aoaTNOkqamR8+fP8Npr36Srq5NkstoflubdV0oDKQ3S6TRTU5P88s03uXHjJgvz836VwfZOVPhikreScDhMR0cHFy9eJBKJIIRgZnqWX/7yTTo7O3jh+RdobmkhUVXNsWPHOXykl0+uXsOy7NI5g8AwvFqFUCiIUi6dXZ00NTVhmgGKHcSGlJjBKPUNBi+9+AIBM0Au979z61YfjuN1ODu2TaGQJxwJEwgYvPjiCwQCQYpVIYZhEgh4/549e5poLIJlFfjFL95idXV9m4wvXhchvLS1cr0eXASYZpBINE5VVRWRiE0kEqa1tZUD+w8QiyVwlSK9tcHo6AgPhobIFwrEYzEEeBUS4RCoAPv29dC6Zw+RcJR4PEkqlUMpQTQa5+LFs/zDv/4B586d8ZK4rks2myObzRIIBEnEE3R2dvK3f/s3hMMhfvSjH3vD3ObmuHTpEq7rUFNTw/59+/ik5jqrq6uEwhGaW1poa2sjEonguha249DR0c6ePXuIRsLYlktDQyOHDh32hX0Q23YYGXnE+sY6Fy9e5N/89/+G5559jmgs4qeks2QyacLhIJFImK7OLiJ+lUQun+fDD36H6yh//QP+ZHLo6GinujpJJJIgEU/iuF5lxszMLAcPHuLAgQOEwxFaWls5e+4c77z7LhsbBaQ0aGlpobu7m4aGBgLBAOnFNIP37jExMaE7dzUajUaj0Wg0Go1Go9FoKvjCcrc4nAm/K9a2bFKpNKlUBsdWSGl4Cq1CLoZCXqdobkth2w7uV67n7EmZW0rl+slcKYSXojXNkqQtnoYQEqVcVpZXWFxY9Aeo7diDKlYCGChVHmIlhCQajdLT08mzz17k4sXzdHd3l+Sn65YHY3lds2sMDNzlww8/YGBggOXlFWzHfmJ/vw9SSurq6jh27BiHDh1CCInjONy7N8RHH11ldmae9rZuamsbCQWjdHcd4OKFZ7nT149tp8upZyGRwkAKAyEMQBIKKra2trh/f4iZmTmCwRDd3V10dXcRj8eprTO5dOkit271MTk5zeLCEq7fURsKBZFCoSSEwxHGxyd48GAYpVw6Otvp6e6kurqaqqokvUeO8Oqrr9Lff5dUKksuV/CvqeMLcxvLsrzno6sQSAwpaGvv4I2//Q4H9h8EIBgM0tTUxIUL56mqSpJOpegfuMvb77zNwN0BBOA4nnA0pMA0TISARFWCWCyG7SiWlpZZWlxlbW2d9o52Xnv9Nc6cOUNdXS2ZTIqRkVE++eQ64+OTtLS08uqrr9DR0UlDQwPnz59namqK9957j76+Pl577ZsEQ0FisRiHDx+msaGBifEJ6uvr2b9/PzU11d7zEZeAGaCpqYn2tjaqkknS6Tw1NdUcONBDJBzAcVwmJ6e4f3+I6uokz7/wPKdOnaQqGSeXyzM+/ph33nmH2dkZ9uxp5dlnn2H//v00NDRw7tw5pqenuTc4xMZ62hfkyu8ylkQiEcxAAOUarK2vsbCwwMryKvfv3+fAgYP09h6hpaWFZLKK3iOH6Ozs4O7dDYLBIIcPH6arq5NYLIplFZibm6O/v5+tLd23q9FoNBqNRqPRaDQajUZTye+R3AX8OoJ8wfI/ki8QSiBkUQJ7IqY4OGpdKSzbRSn51avbfeKI/GFpeHJVCEEkEvWSu1ASvMW0r+O4rK1vkE5nfNFVTM1KyolgLy3qup4cN6SgpqaGo8eO8swzFzlx4iitrc2EwyEsy/VSq0IiBNi2J7n6+m7z8ccfMzR0n83NrVKSUf0BVzQQCNDV1cX58+epqqrCth3W19e5dauP4YcjbKxvce7sRXqPHCOYCFNdXcelS8/y5pu/YGRkhEKhuC7CP/7i12BZNjdv3uSnP/k5IyNjmGaAU6dO8p2/+w7nzp5BSkF1TQ0nTpzg8uX3WVtbRwiBYRhe76+ycWyL0dHH/PCH/5Xbt/uwLIvDhw/yzW++wgsvPEdNTTWxWJSjR3vp6elmYmKaQt7G9d+Y8GS5i+uqUhraG6oG9XUNnD9/gSNHjiKl9NPAAaqqqggEJCsrK4yMjDB0/z5rq6vedTRN7/ku8Lt8QbiwvLLMQP99bt3qZ35+ib6+O5w9d4bDhw9TlfAqTCYmxnnzrTd5683fsLi4RF1dHVIK3njjDZqbm+no6ODEiRPcvHmTwcFBJicn2bdvH4GASVt7G62tLSQScZqbmzh44ACxWKSU1pYSYrEoHZ3ttDQ3k05naW/fQ3dPF9IQFHIFhobuMzk5QVdXJ8eOHaW2pgbXdVhcXOCnP/0Jb775S1ZXV6muTpLP50gkEnR0dNDU3MSpU6c8KTvwAK9qZHs6emNjkzt9g1y58gkL8wvc6e9jamqKgYG7nD17lrq6emKxKPv293D8+FEePHhAVVWSgwcP0tBQj2EYrK2lGR4e5v69If9Nk69kWbdGo9FoNBqNRqPRaDQazZ+F30/u4vW/OraD46dVFSBUUWoqhBQEg0GCwSBKKSzLRSmD7dLzq8W2/K6rvGSs8D527w2WexLHcdhY38Cy7FIlQeUWvbRu8XaBYUiam5s4feokzz53id7eI9TUVBMIBPx9WEjhde1mMjnGxsa4cf06129cZ2TkEZlMxpfO8GXDjLulIIXwhPORI0c4evQopmli2zZTU9PcHbjLysoK+XyB4UePWF1b9eoLwiEOHz7M8ePHmZ9fYH19C9f1s91CIKQs7W9lZZX3Lr/Pe++9z+zsHCBYXFyksbGRI4cPE4tFkULS3t5GfX09odA4hmEgpSx1G+dyWa5cucKv3voVo2Nj2LbLxMQkATNIV1cXVVVxpISW1iba29uIRMKsiY0dTlCglKgQu+Uha8FgiHjc+1pKiWmapeFroXCIzo5Ojh07zuzsEsMPx3yxqzyji4tSivX1da5evcY//dM/c3dgiEwmTzaT4/vf/x4N9fUEggEsK0cmkyWTyVBTU0MiUVVab9u2kdJLdTc2NlJdXc3Q0BB37tyho6PNqzRoaaazs5PW1hba9u6hvWOv342bYW19hbraWoJBk46OvbS1t5LJZDh4aB+NjXUopVhbW6Wv7zbr66s0N1+gubkRM+A95/L5LOl0isbGBpLJqlLvc6FQQEpJJBL1e487uDf40Dt/vOGCrutVlFz75Br/5f/9Mddv3Ca1tUU2m8OyCty/N8TQ0EMOHTpEbW019fUNXLhwgbd/8w4dHe309HSRSMRxHIeFhUX6++8yMzOHFAaO+sOm1DUajUaj0Wg0Go1Go9Fo/iXzJeXu9n5apdxyclR5ZQYAiKLINDANE+VCPl9M7n41xS5QtqUCXOViWRZKgWGaCFnZy1sWto7jks1m/X7cyk1VGkVRSqHu3buXZ565wKVLF9i/fx/JZMKXuhKlpFfbgGBtfYMHQ0NcvXqF27dvMTM7Qy6Xpbj+TxO7X7Rrtyg3TdOkvb2d48eP09LSgpQS286xurqCNATtbW2YAZNCIc/m5gZSQiBo0NjQwKVLF+nr6yOVymFZjpdklaJ0LK6rWFhYYnDwPktLK35VAszNzvPw4SNSqTTxeBwhoLqmmmRVFeFQGMOXr8XUZqFgcffuXWbn5shm8ygF83OLDD8aZW52noMH9xEKBYjHYtTWVhMIGJTNrvemg1IVQ/OUd52UUqyurjA0NMTExGRpTaKxKL1HDtO6p5lEooozZ88SDEZIp/NMT81j2ZZfR6BAKFzXYX5+nk8+ucYH73/I6uoWphEkmaymqamJWDyGaZpAgKbmJl566SXOnD6HlN4fxz179lBTU+2vmUswGCQajbK2tsbt27d5+eUXCQaD1NQk6enpZN++bto79tLYWI/tWMzPz9J3p49Lly5RX1dPa2szXV3tFAoFDh7cRzwewXVt5udnGRjoJ5/PkkwmiMWiGIbEdV2SySpefvklLl26gGXboKCpuYm6ujpvFYUgFovS2NiA5+4VCtdLRyuXhYUFrly5yuXL77O6tonjOBjSq6wYH5/i3uA9Ll26QE1NkkgkzOnTJ+nsauf48WO0te0lEomQzWUZH5/g3r373rDAiueARqPRaDQajUaj0Wg0Go3mS8ndotitGE5Vcrle36brVxYU/WIxAek4Lvmcg+sIUEVRs13WKEHpe4H4s3sc13WxLBtXQTAURMpicldQ9qfeR/2Vf//d8cWulFRXJ3nxxef5+tdforW1mVA46A9p8/51XQfHUayuLHKnv5/333+Pe4ODrK+vUrDygJc4Vcr5zA7SYqXErkdUcXsxtRqPxzl8+DBHjx4lGo2WBGciEeOb33yFza1NDClpa2snkYihUL4ADXPp0kXeeust5uaWsO2Mvz6VQ968tcznC16yVxheRYJS2LaN6zqYpjeQLxgIEggGS6lZUXqOSX8QWnGAnIH0E72FfIFCoeBLW+mJ5ZJcLldFFM9XCG/wn+s6OK6Dch2mpqd48603ufzuZUB5yd2Ayeuvv853v+t18cbjCQ4cPMiFCxd4770PmZmZLm8ThaNc1tfXmZubI5VK+TUQCtM0iETCfgrY6xGur6vDOHyYdCYLyku5CyHZ2tpia2sTx3FZXV3Ftm0ymTT37t1ldm6GZDJJJBKiq7uTY8d76ezspLo6iWVZDA3d581fvsnevXtJJKqoq6/j0KH9BAIm7e2tBIOenB97PMr4+Bi5XA7DkAQCRun5XVVVxf79+/21cVGuwjRNLMtidm4W27JZWVn1rqv3zKfYues4Lul0isXFBTY3PbEL0us2FoK1tTXu3bvHw4cP6enpIhAI0NbWxoULFzh6rJem5iZM02R5foXh4UeMj09g2zZK2aXrp9FoNBrNp6E72jUajUaj0Wg0fy18QblbIXR9KauKRnLnUDI/0VpOXILjKHJ5G9sRXiGoP5TNe9STQ80UqvTzPx3+uQgFypeGloWrBKFg2LuHn/KE7YK0OPzsaQjAMCS9vYd44YVn6erqIBA0fQErfWEryGZyLC0tc/XqVd69/C5jo2Nksilc1+scFUIihcBF4km1HWegPv04njguUbw+Dg0NDRw7doyenh4/XQrRaJQDB/azf3+PN1xOCkwzQCAQQCkbKQ2CQYNDhw5w5swphoaGSaXSpd7l4vG4rqKurp7W1j1UVY1QKNgopaiurqGtbS/JZNIfvAaWZZHNZskX8jiuN/TMk9omoVCIjo4OamtryGQKoATxeJTGxnrqG7zKA/A6dVOpNAU/eb39SgikL3+9rlxQuGSzaeZmZxgZeYgQEsu2cByHgGlw6uQx2tvaCYUixGMJ9uxppampgZmZyYoqDolyoVCwyOfyOI5d6uG1LIv1jXU/Ca5wlcuqn8YdGnpAJp0lGo36/cKmX49gMTc3x8OHD0ilUgw/esjAQD9dnftIJqN0d3fiODZ1dXWEw2HW1la4dfsW165f4/Vvvc7+/YdIxKs4cuQQ1dVV1DfUUijkSadT3LxxjYXFeQzDIJXeIp/P+89/l0wmxe3btxkefoDt2BiGiUAQDkdACLa2tsikMzx8+NA/HxchFFIAhkCIorC38ZS39+dZ+r3LY48fc/fuXS5cOEdDQz3xeJxvfes1amtrSVYlcV3FzMws9+8PMTc376+vsevzXaPRaDSap/Fpb3BrAazRaDQajUaj+UvgC8jdyiqGyu9dr5ZB+dLFl6JeMpKKrlmwbcjlwHZNlDR2bK+c4C2KXvknFLtlBV1xmwDHdcnlbVwXpGFUvEjYPiQNtqvvMhXSWigMU3L27Fna2vYSDAZQuJ4SFBKlIJ3OMDs3y3/7b7/gysdXmZuf8RKPxQ5j4clbx3W+cPXCU89dCBzHIRQKcfToUU6ePEltbS2AP3jMIRaLltZkeyWHg+sfSyKR4OLFi3z44ccsLi5Rkv8UxaxBc3MLL7/8MjMz8zj2AwzD4NTJkzz33LNUVSUoysXNzQ3W1tZIp9IlGQoShCAcCfP1r7/MnTsD5HJ5rILNgYMHePa5S/T0dCOF98ZBLpdncXGRfC5XepPBE+kKKT3RLqXXf2xIA4EiFApRVZWgprYGx3FwXa9Dt6urk8bGJkKhIACGYRAOhwmHQ14dA37y2l8j6UvwYmpYSkkmm2ZqapKtrS3q6pI4rsPGxgZ37vTxj//4Q9ZWV1HKGyjX0dGO6zhMTk4zNzdPLpdHCMHqyiq3bt7k5a99jURVgj179lBbV0swUEz8bvLwwTAz054YPX/uPNXJBIcOHaS9Yw/hcATLyjMzO8PNmzdIpTIIoVhaWmRzaw3HbUa5ikwmxcjIQ/7P/+v/YHNzE4B4vIrurm6CwRDDw8OsrKz6Pbp2eYCiAENKb20Nv5ZDgnK9nzuu15m7sDDP3bt3mZiYoKWlhXDY5dKlSwQCAYLBEJubmzx8OMz9+0MV0lmndjUajUbz5fmib35rNBqNRqPRaDT/Etgmd5/+C2/59u0DxfzqBeH17pb7aIt3Ln7hyd9c1mZxKUUuZ6JiJkqIiu7dyuSuf6v67NzuH+JX9FLJhPL261UsKJAC14WtrSy2AwqvK1gJwz+3ooYun8eTa7j9vKQUVFcnCYXCSGmWBKLrOqTTGQYHB/nZz37GnTsD/kfatw+QKm7e24/Y8bPdV+OzXsh4H5uH6upqTp06xf79+0uDvTY21pmYmGBjY70kK13XE7qGKampqaGrs4NYLAYoDh48yJEjhxl/PInhy3ClyiI8EgnzrW99i6bGFh49ekQoHObYsV6OHj2CwqZg5XEdl+vXrzMzM4Xt2H4VgyzJ7IBpcvTYEf7n/+V/5N7gffL5PD09+zh+/DgNDfWAQ76QZ+TRI0ZHRslkMl52VJTXQkpPIufzOQqFgn9OiuamZr797b/h4MGD3r4CAULhECdPnODgwYNechXIZjPMzc2ytLSIYRiAU7rG5a7hyusPtmVx504f4+Mv0thYSywepquzg7/7uzeork5y69ZthBCcOHGSC+cvkE6n+dnPfs7Pfv4LZmfmUEqxuZnhzp0+RkZHqKltJBqJE4l4a59Kb/FweJiBgbtks1nuDtxlbm6OhoY6orEI8XgEpVxW11a5c+cWY4/HKBQKCOEy/PABoyPDdHXtJRaN09zcxBvf+TbhSIjBwXu4rsu+ffs5e+YsUhr86te/5v/7px+xvr7pVzko8Pt2EcIX3q6/LsW3Tly89K0il8vx6NEw165do7f3MIlE3B9eF8BxvM7eu3fvMjY2VhbHT3n7RKPRaDQaKP8dv/PTVTt/D/pDvTmu0Wg0Go1Go9F8FfiSnbtQTEEW05leZYDacU9VSvUq5WLZiq2USyarcKICFy/lKJ7YdnEPfzq2H4MCX0rmLZdMzsbznxVDuBBltSuefKHw5Mf9imvlYtuesLUs2xe7LrOzs1y9epX333+f8fFxNje3SonYP0XKJBAIsH//fnp7e6mp8VKr6XSaa59c5z/+b/+RjY31kth3HBtXOYTDQU6cOM6///f/jtOnTuO6Lg0NDZw9e4b+/rusrKx51971hswZhtedW1dXx/MvPM/5C+cxDEkkEiYcDgA22WyG8cfj/O6j3zI/P1dag0KhQCq1RSwWwbIswuEQx44eZv/+bgQQCkWIRKJIKbBtl8XFJX71618zMTFOPp/HcV0q09bFaxEMBgkGg0hpIiW0tu6lpraWCxcueMltx0EIiMfjhMNhQOI4DlNTU1y/fp3JyQksK+9ffxeUwjSMktguPi8KVh4p4e7dft577zJ19dUcPLiPQDBAT88+9u5p4zvfeQNDGkSjMSLRKLlcjnQ6zcTEJEuLi1i2A8JhdHSM4eFheo+cIBaNUvyzmEptMDo6ytz8HIWCw+PH48zOznLg4D7MgMT1qyA2Ntbp6+tjZXm1JPYH793ngw8+YG9bK729vZimSUtLM3//939PaiuF7ThEIhFisTiFgkXBsng89pi5uTk/sex1J0M5WV7+f4JCSsPvWfYrMJTD/Pwct27d5Gtfe5Hjx49hmt6a2bbF6OgYj0YekUptUkxz62FqGo1Go3kaxVRuZTq3PCeB0kBbjUaj0Wg0Go3mL40vIXeLlEWOcosfzffTETvCuN59FLYDqZTD8sombbUGSgp/IJdb6u2tGPH15Q/tS1MW1wIDW0myOYetVB5HGV5yt8ItKVUhdj8zBVJer+XlZTKZDFVVVWSzWR4+fMiVK1e4ceMGU1NT5HI5XNf9zGTJH0r6SilJJBKcPXuWnp4ewuEwlmUzNzfPtes3uHbtOpZlUbwmXlWBSyBgYBVszp87z5HDvZiBAJFohKPHeunp6SSXy+J13zql2o7Z2XmWlpZoamqmurqGYND0+1ktstktRsdG+K//5Z+4euUTNjY2CYUiCAGmaRIOh3Ech0w2w+PHY9TV1ZJMVhMOhZCGgats8tkcMzMzvPvOu/ziF79kYWG5JDCLeMvqHZdl5bGsAo5rYUgT0zSJxWLEYlHvPF3H736GQqHAxuYWj4ZHuXz5Pd555x3W19eIxsII4SVzLTuPlIJ8Pk/BKvhy3vH3B8vLS7z99tsEggavvvp1DhzoIR6PU1NbTXVNjZdxFYJ02qtwGHowxMLCPEIKDAlSCNbXN+jru8Ozzz5HdU0CwzBwHIfl5SXuDtxhbc2rUZibW2R0dIxjx3oJhUykFGSzWSbGp+jrGyCTKVBsU1mYX+bdyx8SCoVJfzvHoUOHSCarSCQi1FTX4Lg2rqvI+ut7/949pqdnSm8+ZLMZCoUCtuNgGLLCwXoVGK7reDXbuP7/J7zqjeHhYQYGBjhy5DDBYBClHDY21hgcHODx2JifqtY9uxqNRqP5dIpvqDqOQzabZWNjA9u2S0I3n8+TSqX8Pni3NHBW1zRoNBqNRqPRaP6l83vIXSh35AJ+pQGiWFIgUBVBOwU4DqQyLmvrWVxlopThlZPifey6OHip/DHuP0d2t6jyJI7jyd1U2sFxDZSS23KDxV5hr3f38+3Ftm1u3brFnj17qKmpYXJyktu3b3Pv3j0WFhawLKsks/7YLziK8lhK6Ys1xfDwMAsLC+TzBcbHJ/j4449JpzM4jtrWWwsK23aYmprl8uX3qa9vIBIJ47ouKyurJfmrlIvCk5tKwfz8HP/8zz+hrq6enp4e6upqkVKQSm0yMfmYGzeu8bvffcz8wjy2bRMMekW2xSFjtp0nl8vxq1/9GqVcurq6aG1tJRwOk83mmJ2dY/DuIB988FuG7j8km81VCPlilYV3jR3HYWp6io8//pia2hqCAa9P13Ecf+CZg3Ldkqzd3EoxNjbOvcH7DA7eY2xsDNu2KBQMJiYnuXL1E+pq/pUxagAAFpRJREFUa5CGYHDwPqsra75YdgGJUt6QsYcPH5Iv5Bh/PMqp0yfZt6+b2po6AoEQBSvP1uYWU1OT3Lp9m5s3bzM2Oo5je+lnx1E4jk3/nbt88MGHzMzMEAgEsCyLBw8eMnB3EMd2MAyTzc0tbty4RXVNkr17WwBIp9L09Q3waHgM2y4eFxQKDqMjE/z8528yNTXLufPn2L9vHzU1tQQCJgWrQCqVYnJiiv7+AW7fvsPw8CNs2xPniwvL3LzZx9zcHNKQjDwaYWlxGVD+oEH855rwk1QSx3VY31hnZmaWQsEmEAjhOA6Tk1Pcu3eP+fl5v7bkyWGLGo1Go9FUopTCcbwu+6tXr7KxsUE0GsU0vcG1lmUxMzPDyMgItm1v+3SNFrwajUaj0Wg0mn/J/J5yV2z7UniRPH/0l1sssvV7eQWOC5msy9zCuje4yQiiKIBwEP79vdlUf2qxWz4Jb/cSF5O8LdlM2axtKhwEXl/ozoFq/P/t3c13E1eax/HvvVWSLWFjCObN0ElIk3Qg6SHpmaRzZjZ9ZtPnTPfM7GYzi/nzZhZzOp3Z9KqnJ03oJDQkOBA7vBiM8QuybL1ab/Vy7yyqSlWSZSDYJkCezzk6FnKp6lZJQOmnp55L2ppie4VhUhWS/AzDkG+//Rbf9ykWi5TLZdbW1mg2m9sqTPdbMi6loorOv/zlLywsLOA4DkEQUKvVuXXrdlyhrIjSeh0fpehWrze5dOlzqrValNPHrQyW7i/FoVwy0VZUvb211eSLLz6nWq0xPX2UQ1NTaK1otVuUSmssLd2n3qjje2HcZ9dBKQdILq2M2i7cuDHH/Pw8hw4d4uj0UXL5HJ1Oh43yJssrK6yurOF5/qi9xlqFNVHoeOWvX7Fe2mB8fCz+AJiEuwZjTVxJq+OKnxal0jobG5tsbW3F1czg9Twuf3mV9VKZYnEcrRWVao27dxcJwyRQTj5ARpPm3fzuFqWHD5mdvc7JmZNMHTxILpePQtRmk/VymQdLD6hUa4RBNuCM9uHW7bv813/+N6+8cjhTubvJndv3iQJ4RbfrcfnyVUqldSYno768vZ5PqVRmY6MeB666v85Op8edO4usr1eYm7vFzMwMk5MT5HIufhDQ6XRYL5VZXl5hY6NCr9eL30MO16/PUavVKR4ooBXUGw3uLixijI7bskS9d8fHi5z96U+ZnJyk2+tyauYUr792JnpNbDQJ3tzcPAsL92g2tzIT8gkhhBCPZoyhWq1y6dIlrl69Si6XQ2vdP0fr9XpUq9V+eywJdYUQQgghxMtgF+Futv+lJXt+3G/PYNNemUpFk5F1ewGrqxV8/yeYXAFLDwgzgWG2avdZnXQn1ZzJfQeDS9dTVBsBtQYYG02oNriPSV9h1a/KHLn2TGVIGIY0Gg2uXLmy82ie4WWCyQeeVqvF7Oxsvz9dMtYonATITqSn+pOTeZ7Hysoqa2urBIEf9dXVChMaTpw4SWhCVNxOICRq3dFut7h58ztu3JjrXy4ZhgHGBP39NxYUDlq5cbgbbxeNNeD1ApburzA/dysas6If2KbVnqPfQ1E/PkUQhNy6dYeFhXsDffmyPfu0jkLt0BjC0MTrzQaOmjCEhYV7LC7ex3WjsZp4eRsH4tl1R31lDZubNSqVOnNzt3Bdd+ALgOj5aTuL5O+EUlFYWq3UuXz5q4FxG2MJ/BBrdTxWxYMHq6ysrPYry62JKuhDk53oLJ4QDUMQGKrVOo1Gi5s375BUpSfvR2MMQRAShsm4NOBw9+4S9+4tARatonYrQRASfd+hgRCtHV79yWv887/8K2+99RadToeDB6f46Je/JJ/LYw1sbGwyO3udlZVVfD+QD95CCCGemLWWXq/H8vLy93qOEEIIIYQQL7KnDHcHq1eNiSZqGujBkAS7SXWodrBK4fmG8uYWjS3DVKGApY21Xn9dKg6cftBTbaXAOnS6hs1am1YHrNJxuJtWYCYsth/GvYiSiuNo8rA0iM5OHpe0FgCTHAGiPrK2X1WatDJIwj1j4mrsOGQNQ0Mu5+K4UQW0MWlFajL5VhRWxlXCKnofJJPOWWv7EbzjuHFvPYPvh5lJ7aIK0H6YaZOxbt/n6PsHkwkqR4XB2dc7G4QOrtfaKAi38X6Y/oQu2yvQ0/Gp+PgZgsAfWGf6YTMbqifvPx2H04Z0orHs/mYD+ijkjSYujEJz268Cjl6HtB2K7q8jDC3G+P0wOfvhNz0WyUEGE1os0XI6rgY3Jvq3QamoFUNhvMAHH37Ar3/9ay5cuNBfX7FYBKKWEbOz15md/YaNjQ3ptSuEEOJ7+b5B7ePmNhBCCCGEEOJF8BTh7uCJsLVx+BZXGVpr0OTAJjFcFPY42kFpl17gUSpvsbLW4PjhAq7OY+KwK46Wtm1j/yU1u0mwBtY6bLW6lNabtDsKO+4SVTGquMIyDrNtWuXq+6Mrdwe29BxXiGRnmB4t2mcb73fmmQN3k7pW7Tg4jiYIAzrdLr7nRRNkhSHZgHQwRFYDPXKNCfEDj263R7vTwdqgH6InwWgaRH+/dh7RvuqB7aXjGN4/nXl81O+jcYc2CVyz7+MkgN2+z9u3nYi/7BjqB5j+jILp6PfZ3w0H0OnjSZV59jglk8vRb3+QrCsdcxruxtXD8bGw8fIWG1cCx+8frdBxj+GE6+SZmprizTff5PDhwwDk8zkcR+P7Hq1WmxvXb/D7j3/Ptzdu0G53ZKIbIYQQ+0r+jxFCCCGEEC+Dpwx3M5OPWYs18WXoJoh+6ygwaTiltEJpjVIaP4Rq3bBWbtH1D1IYy0eBk+033GUw6HqCE+/dZMGZK+xVP/DSmNCl1bJUqz0Co1HGwaL7k6glQWjSnsGYqC3DcAj3PEuCQ9WvtDTbxp1UwyaGe6BGVZlJK4LoUv8kaPV6PpubFRYX77NR3sAYy/p6mXa7s2NV5kBFtLWEQUC9Xuf+/UUOHBhHa0uz2aDn9eK2B9kQdVR/1tFvjnS/FKNequ3BYtq0I7qTDZQhDVRHvXdtv1LXZirct489O2Y1UFGUjie7vBr6malCsipedHBb1poontXpeEf1tU2qbaPWFM7AzOL9901ceZyG28n6wKpkP9PJ5JpbTT67eJGJiQk++OADjh8/jtaaarXK/Pwcn/z+Ez67dInNyka/RYcQQgghhBBCCCGE2Nn3DncHg6Dokm7f92l3OmhHY0ITR0ZpewXtuLj5MbSTAzx8Y7g2v8Qv3jvJ1ME8ecdFh6D6YdpwpeMj7LLIN42pFBhLLp8jNHlqXSitG9YeghdoJvIHcHN5lM4GgmkVpe/7tNvtJ6h+fX5kJ3rbOWwdFZgO/j6ppM32fwVLtVbl448/5tNPPyWfH6PX61Gv12k2t+JgNrumtP1BGrxafL/Hl19+zt27t8jn81hr6PW6lMtlWu2toecn75nBgHXUbNjJfaXsUJCrUMqOXE+mtnswhcYStTjY6csJMxQEP+rLi6j1xXAF7uDrkE6CNrjeTDWvSsPWJFjuh7n9zdqhGwPrCUMTh/62/6VGUsmrMuvPPj97rKO7UVuH0FharS0ufnaRG9/eYHr6CJOTk2itaTQalMtl6vU6nU73hW1vIoQQQgghhBBCCPGs7WJCtVQQhvR6vX4Y1A944lpYrR3cnIt2HUILbc9y536Nh5s9pqcMKmfIY6MOoAqMTQI5/ajNEm9kV5K6RxNPnuX7hhBNrR6wvNphfRMCo3DdcQ4dOhz1k7VpEBpdHm/xvYB2u/NChbuwtxXGw+vyPZ9KpUq93iDqL5tMEgaDYexgu4M0NFQYa6jVKjQatUwf3XTSscd5dD89m2k/kH1s5+XTn8MLmaFlRj0PHt86Ij0e2fdZ+tydtpE+P229kPx553ENBrSPWmc2vM22XMiG10k4T3+b2Up2ay2dTjsO59fRWsd9k8P+6/ki/d0RQgghhBBCCCGE+KHtOty1QK/bo95o4HkehUIhmkyKuB5WKcbGxjhQLJLPRf11O11YL4fcu1/jzEyBA/k8IV0gjCMpDWi0GuzbyVCVIioNFJ82EorixahXsFWgnRx+mOdhucHiUp1mC4zSFIoT0cRPKqmOTIsfrQXP92m12pnwUkQTcyUVoOlkYNsD1FEVr8mfLWGYtHzIrnu4+nX7QX+yiVIeF2w+qZ32YT+2lTUckGe3tXP1e3r8Hh2QD4etNpkocWDdg9sZFdBmw9/kPbHzsXhc+C2EEEIIIYQQQggh4IlKYx/NWovn+7RbbYLAH7xcW0UBWz6fp1gsMl4o4DguodE0m7B4v0q9afHtGFbnQOu4sHGHECy+3Lx/SyocdzN+oqjKKItBY/UYjTbcW+5yf9XDC8F1XSYPTpLL5+hXe6rkUvXoEHqeT6vVyvQgFSnVr3B+fGVz9vgl1aLxnzLVo8/fDNc/1OuebNcM3Wzm5/Atu9zTbnOndY8+Btkex4OV2tHfocGbynwZMPwcIYQQ4vGSc4Xn85xBCCGEEEKIvbPryl2lNL7v02g06fV8tNYEJr42G4vFMj4+xtGjR5mePkp5fRMbWHqBx517ZVbWJjn+isPYgTzgoQiizqZWYa2TiYr258TckoaGxjp4Xo7bdxtc/67Bw4rFx2GieICZUzOMF8ZJLjVXaFTcgzUIQprNFs1mSy4rjyX9fIcf+75GfR570VpfPHujKnl/eMO9jTO/eYLlk+XkdRdCCPF4w+ch2/9PEUIIIYQQ4uWwq3BXqainbrfbZbNSodVqxSfSmcpLC2Nj4/zkJ69y7tw5VldLNGtVgtBnabnJrYUKr506zoHCBEoFOMbgxN16DU7cP3RnVikes8ijn28sWA3WIbRFltc9Pr9S4frNNvUO6LE8R4+f4J13z1MsjqN1/IEhbi1gjMLrBVQqVVqttrRkeIR0si3IBnqP64v7ZMuJF8FOk9vt9Npu/4Jg/8YmhBDixZf9f0YCXiGEEEII8WPw1OFudJkbGGvodjvUqlU2KxVeP3OG6FLrtK+q4zicOHGCDz/8kGqlzjezs9QqAc1Oj7k7VU6fOogXjJNXDo51cQBH66hNgn18rd7Th7vRGJV1MIHCDzWXv6nwxWyb1YrCLRQ4dvI0f/t3v+DCe+8wNpaL9yu6hXEw7Ps+6+tlej1PwqfYkwaxEtgKIYQQYq+M7hU/SEJeIYQQQgjxMtlV5a6NZxQLw4BGo8Hy8grvv/c+SrnxSbOKqyagWCzyzvnzFAsHODBR5PatORrVNR5Wuvzpi4d8fcOgTAcTeCgT13U+LvdTe3CRtgVlFTa0WF3g7oqm0p3kyKkiJ0+/yi8++Ih/+Pu/5/jxaVxXxROmmaQbLFhotzuUSiUC39/taH4U0v6r4sdOwn0hhBD7wXGcbY8Zk/aal4BXCCGEEEK8LJ4i3M2GtjaeKAu2trZYfrBMp9OlUChirYlPnEFrB9d10Nrl3Lm3OTlzktW1B9y9M8dGaYlqeYlbSw94uLZFu2XxOnYg3H1U/vO0p+UqcyfnOBydznHmjRnOvX+W6ZkzHJt5jdOvvs6pUzMUxnMEgY/FRJOpYQCF1ppuz2N9vcTKynL8O/mgMFq2D+xOfVTt0PLi6T2ffXd3R94TQgghHk0pheu6TE9Po3U6b7Dv+3S7XTzPw/M8CXaFEEIIIcRL4ynD3eykSFE412w2mJ//jkqlwsmTBQC01lhrMcZgTPQcN6c5cuQQhw9Pcu7tt1A2AOuztLTI//3pj/zvHz9laakcxVLDmZ/aHlcNt21QQ8tYtvfpVAq0Au3A+PgYPzt/lt/85p94861zHD5yHDdfAOWAUhhraXe6gCGfy/UDXGsNCkW73eD+0j0WF+8RmvBHHfDu/EFp+HFF9r2TLmNHLLsf4/kx2NtjuVs7vRQ/6pdICCHEnnEcB9d1KRaLvP/++7z33nscOHCAXC5HGIaEYcjGxgbXrl3jypUrBEHwQw9ZCCGEEEKIPbGrtgyRKJ3x/YDSeomvv/6ao0ePxdW6mlzOJQzDzEl01KbBcZz4krk8AK+eOc8/5g5i9UF+97uPaTab20+87YgJloYDrCdcBqCQK/D6m2/zb//+H5x/5zz5sTEUCsd1UXGwm0wKl/QYjoLdqFw5NAHr62Xu3L5Du9WKV54NLMVoo47P8xVGCiGEEOLFYYxBa82xY8f41a9+xW9/+1smJyfJ5XJYawmCgBs3blAqldBao7UeaNMghBBCCCHEi2qXPXfTMC4MAzY3Klz87BLvvPNzTp8+jTEGf4c+tGmvsyiIdd08x46d4Gdvn+PEyS9obm09UdT3NMsk4e/4eIEzZ97g3Pl3OHhwCmPDgX1TKgoclVbRc6zFcZ24OldR2awyP3+TuflbdLo+xkgv2ScnYa4QQggh9o61Ftd1OXLkCKdPn2ZychLXjeaB6Ha7LC0tkc/ncV0Xz/N+6OEKIYQQQgixJ/TjF3lyvV6PuW/nuHjxIrVaDWMM1to4KFUjbwlrLblcjsOHD3PkyBHCMHzElnZPKUU+n+fQoUMUilEbiTAMMdZgbNRbN7kRV/BGY9Yo5dBudbh58w5fXf2G1dV1wjAJqiXgFUIIIYR4lpKCA9d1yefz/SvEkpvruuRyOXK53EAvXiGEEEIIIV50e9CWIRWGIdVqlT//+c9MTU3x0UcfMT093b8kLjnxTsJeGGyhoLXGTVoi7HCp3F72UbXWEoYh1lgs8eRwJlNRauPHAR339jXG0Gq1mZ+/xaVLl5mfv0mr1SKZYM2Y0ZXKQgghhBDi2cieLyb305ZgQgghhBBCvDz2LNxNwltrLQsLC/zhD3+g2+1y4cIFZmZmKBaL/eA2G+4mzwXwPI9arUatVturYQHbe/Am2+x2u5RKJRr1Bq9MH8F1c/EEcCEWUBqUBWsNJoRut01ls8Lt2/f48ou/cu3aDcrlDcLQRykHrTRRJC3tBoQQQgghnpXkXC8Mw36BwPC5ZvYmhBBCCCHEy2JPK3chOnnu9XrMz8/TbDZZXFzk3Xff5fXXX+fo0aMUi0Xy+TzWWrTWcZhq+r3QZmdnWVtby/Tk3duxZXU6HRYWFpj95ht+/jcXmDp0CEdrgiA98Q+CgE6nQ6fdZmXlAXPffse1a9e5d3eJWr1BEPiAwdrMBGxCCCGEEOIHkw12k/sS6gohhBBCiJfRnoe7kLY7WF5e5uHDh3z11VecPXuWs2fPMjMzw/T0NBMTE4yPj6O1xvM8SqUSV69e5eLFi2xsbOzHsLbxfZ/V1TU++eR/2KzUeOPMGxQPTABRqNvtdqnXG6yXSqyurbJ0/z4Ld+5Sr28RBiYT4yqigFfCXSGEEEKI582oK8aEEEIIIYR4GexbuGuMIQxDfN/nwYMHrK2t8eWXXzI2Nsbhw4fJ5XJMTEygtabb7VKpVNjc3KTT6ezbSfdwNbC1lq2tJn+9fJl79xaZnj7G2Pg4SmmCIGCr2aRWq9LudOh1uhQKBXo9P57sLZlAjfi+hLtCCCGEEM+DUZP3CiGEEEII8TLal3AX2NbXzPM8fN+n1WpRrVaBnXuh7cW2vw9jDOX1dTbKG6PHhAVr6XS2RqxbkYS7QgghhBBCCCGEEEII8azsW7g7ShKMPn+XwyXBcrjD7+Np0p63YQshhBBCCCGEEEIIIX609H6t+PkLcJ/Wy7IfQgghhBAvr726AkwIIYQQQogXyb6Fu0IIIYQQQgghhBBCCCH2zzNtyyCEEEIIIcRe0loP3HddF8dxsNbGk+BGjyePCSGEEEII8TL5f2u2trRRZxWhAAAAAElFTkSuQmCC;" parent="1" vertex="1">
          <mxGeometry x="470" width="979" height="530.44" as="geometry" />
        </mxCell>
        <mxCell id="MOpgcHmCaBwg6PiQLFTS-3" value="" style="edgeStyle=orthogonalEdgeStyle;rounded=0;orthogonalLoop=1;jettySize=auto;html=1;" edge="1" parent="1" source="MOpgcHmCaBwg6PiQLFTS-1" target="MOpgcHmCaBwg6PiQLFTS-2">
          <mxGeometry relative="1" as="geometry" />
        </mxCell>
        <mxCell id="MOpgcHmCaBwg6PiQLFTS-1" value="&lt;font style=&quot;font-size: 19px;&quot;&gt;Приветствие&amp;nbsp;&lt;/font&gt;" style="rounded=0;whiteSpace=wrap;html=1;" vertex="1" parent="1">
          <mxGeometry x="610" y="600" width="260" height="80" as="geometry" />
        </mxCell>
        <mxCell id="MOpgcHmCaBwg6PiQLFTS-6" value="" style="edgeStyle=orthogonalEdgeStyle;rounded=0;orthogonalLoop=1;jettySize=auto;html=1;" edge="1" parent="1" source="MOpgcHmCaBwg6PiQLFTS-2" target="MOpgcHmCaBwg6PiQLFTS-5">
          <mxGeometry relative="1" as="geometry" />
        </mxCell>
        <mxCell id="MOpgcHmCaBwg6PiQLFTS-7" value="&lt;font style=&quot;font-size: 15px;&quot;&gt;Против игрока&lt;/font&gt;" style="edgeLabel;html=1;align=center;verticalAlign=middle;resizable=0;points=[];" vertex="1" connectable="0" parent="MOpgcHmCaBwg6PiQLFTS-6">
          <mxGeometry x="0.04" y="-1" relative="1" as="geometry">
            <mxPoint as="offset" />
          </mxGeometry>
        </mxCell>
        <mxCell id="MOpgcHmCaBwg6PiQLFTS-9" value="" style="edgeStyle=orthogonalEdgeStyle;rounded=0;orthogonalLoop=1;jettySize=auto;html=1;" edge="1" parent="1" source="MOpgcHmCaBwg6PiQLFTS-2" target="MOpgcHmCaBwg6PiQLFTS-8">
          <mxGeometry relative="1" as="geometry" />
        </mxCell>
        <mxCell id="MOpgcHmCaBwg6PiQLFTS-10" value="Против ИИ" style="edgeLabel;html=1;align=center;verticalAlign=middle;resizable=0;points=[];" vertex="1" connectable="0" parent="MOpgcHmCaBwg6PiQLFTS-9">
          <mxGeometry x="0.1684" relative="1" as="geometry">
            <mxPoint as="offset" />
          </mxGeometry>
        </mxCell>
        <mxCell id="MOpgcHmCaBwg6PiQLFTS-2" value="Выбор режима игры(против ИИ, вдвоем)" style="shape=parallelogram;perimeter=parallelogramPerimeter;whiteSpace=wrap;html=1;fixedSize=1;rounded=0;" vertex="1" parent="1">
          <mxGeometry x="660" y="770" width="160" height="90" as="geometry" />
        </mxCell>
        <mxCell id="MOpgcHmCaBwg6PiQLFTS-5" value="Запускаем цикл while против игрока" style="rounded=0;whiteSpace=wrap;html=1;" vertex="1" parent="1">
          <mxGeometry x="300" y="785" width="120" height="60" as="geometry" />
        </mxCell>
        <mxCell id="MOpgcHmCaBwg6PiQLFTS-8" value="&lt;span style=&quot;font-size: 15px;&quot;&gt;Запускаем цикл while против ИИ&lt;/span&gt;" style="whiteSpace=wrap;html=1;rounded=0;" vertex="1" parent="1">
          <mxGeometry x="1000" y="785" width="120" height="60" as="geometry" />
        </mxCell>
      </root>
    </mxGraphModel>
  </diagram>
</mxfile>
